<svg id="Layer_1" data-name="Layer 1" xmlns="http://www.w3.org/2000/svg" viewBox="0 0 730 420"><defs><style>.cls-1{fill:#170e1b;}.cls-2{fill:#b8a3cc;}.cls-3{fill:none;stroke:#b8a3cc;stroke-miterlimit:10;stroke-width:2px;}</style></defs><title>tree</title><path class="cls-1" d="M338,60H222a11.79,11.79,0,0,1-12-11.57V11.57A11.83,11.83,0,0,1,222,0H338a11.79,11.79,0,0,1,12,11.57V48.43A11.83,11.83,0,0,1,338,60Z"/><path class="cls-2" d="M222.1,26.57V24.63h8.05v1.94Zm2.05,2.3V22.13h2.19v6.74Zm4.2,4.2a4.87,4.87,0,0,1-3.21-.86,3.47,3.47,0,0,1-1-2.75V28.38h2.19v.87a1.72,1.72,0,0,0,.51,1.38,2.54,2.54,0,0,0,1.66.43c.25,0,.52,0,.8,0l1-.12.19,2c-.35.06-.7.11-1,.14S228.73,33.07,228.35,33.07Z"/><path class="cls-2" d="M236.93,33.07A4.88,4.88,0,0,1,233.49,32a4.12,4.12,0,0,1-1.22-3.2,4.53,4.53,0,0,1,1-3.15,4.37,4.37,0,0,1,5.76-.09,4.2,4.2,0,0,1,1,3c0,.37,0,.73,0,1.07h-6.31V28.14h4.2a1.74,1.74,0,0,0-.44-1.28,1.66,1.66,0,0,0-1.24-.45,1.63,1.63,0,0,0-1.33.59,2.65,2.65,0,0,0-.47,1.68,2.23,2.23,0,0,0,.7,1.78,3,3,0,0,0,2,.61,11.07,11.07,0,0,0,1.15-.06c.37,0,.76-.09,1.15-.16l.21,2q-.82.13-1.5.18C237.68,33.05,237.28,33.07,236.93,33.07Z"/><path class="cls-2" d="M247,33.07A5.3,5.3,0,0,1,243.36,32a4,4,0,0,1-1.29-3.2,4.16,4.16,0,0,1,1.17-3.15,4.61,4.61,0,0,1,3.33-1.13,4.86,4.86,0,0,1,2.28.5,2.86,2.86,0,0,1,1.35,1.42l-1.59,1.22a2.49,2.49,0,0,0-.9-.84,2.56,2.56,0,0,0-1.2-.29,2.2,2.2,0,0,0-1.61.57,2.53,2.53,0,0,0,.16,3.4,3.22,3.22,0,0,0,2.11.61,11.12,11.12,0,0,0,1.16-.06c.39,0,.77-.08,1.13-.14l.23,2a8.61,8.61,0,0,1-1.35.19C247.87,33.05,247.42,33.07,247,33.07Z"/><path class="cls-2" d="M252.06,32.91V21.19h2.19V32.91Zm5.08,0v-5a1.63,1.63,0,0,0-.32-1.07,1.16,1.16,0,0,0-.92-.38c-1.1,0-1.65.73-1.65,2.18l-.5-2.51h.71a2,2,0,0,1,.59-1.25,2.16,2.16,0,0,1,1.43-.41,2.76,2.76,0,0,1,2.11.8,3.19,3.19,0,0,1,.74,2.25v5.39Z"/><path class="cls-2" d="M261.78,32.91V24.63h2l.23,1.75v6.53Zm5.08,0V28a1.83,1.83,0,0,0-.32-1.15,1.11,1.11,0,0,0-.91-.41c-1.1,0-1.66.77-1.66,2.3l-.5-2.65h.72a1.94,1.94,0,0,1,.59-1.25,2.11,2.11,0,0,1,1.42-.41,2.76,2.76,0,0,1,2.11.8,3.19,3.19,0,0,1,.74,2.25v5.39Z"/><path class="cls-2" d="M275.14,33.07a3.69,3.69,0,0,1-2.88-1.13,4.56,4.56,0,0,1-1-3.17,4.57,4.57,0,0,1,1-3.18,4.26,4.26,0,0,1,5.76,0,4.57,4.57,0,0,1,1,3.18,4.56,4.56,0,0,1-1,3.17A3.71,3.71,0,0,1,275.14,33.07Zm0-2a1.4,1.4,0,0,0,1.22-.6,2.83,2.83,0,0,0,.43-1.69,2.87,2.87,0,0,0-.43-1.7,1.42,1.42,0,0,0-1.22-.59,1.44,1.44,0,0,0-1.22.59,2.87,2.87,0,0,0-.43,1.7,2.83,2.83,0,0,0,.43,1.69A1.42,1.42,0,0,0,275.14,31.06Z"/><path class="cls-2" d="M280.66,23.14V21.19h2.57v1.95Zm5.48,9.93a2.9,2.9,0,0,1-2.34-.86,4.34,4.34,0,0,1-.71-2.75V21.19h2.18v8.19a2.49,2.49,0,0,0,.12.84.83.83,0,0,0,.43.49,2.43,2.43,0,0,0,1,.15,7.5,7.5,0,0,0,1.8-.29l.25,2.17a11.43,11.43,0,0,1-1.33.25A11.75,11.75,0,0,1,286.14,33.07Z"/><path class="cls-2" d="M294.58,33.07a3.68,3.68,0,0,1-2.87-1.13,4.56,4.56,0,0,1-1-3.17,4.57,4.57,0,0,1,1-3.18,4.25,4.25,0,0,1,5.75,0,4.57,4.57,0,0,1,1,3.18,4.56,4.56,0,0,1-1,3.17A3.69,3.69,0,0,1,294.58,33.07Zm0-2a1.43,1.43,0,0,0,1.23-.6,2.91,2.91,0,0,0,.43-1.69,2.94,2.94,0,0,0-.43-1.7,1.57,1.57,0,0,0-2.45,0,2.87,2.87,0,0,0-.43,1.7,2.83,2.83,0,0,0,.43,1.69A1.42,1.42,0,0,0,294.58,31.06Z"/><path class="cls-2" d="M303.46,33.07A3,3,0,0,1,301,32a5,5,0,0,1-.89-3.18A5,5,0,0,1,301,25.6a3,3,0,0,1,2.5-1.13,2.34,2.34,0,0,1,1.49.41,2,2,0,0,1,.66,1.25h.63l-.5,2.65a2.94,2.94,0,0,0-.42-1.76,1.48,1.48,0,0,0-1.26-.56,1.54,1.54,0,0,0-1.29.61,2.81,2.81,0,0,0-.45,1.71,2.85,2.85,0,0,0,.44,1.72,1.54,1.54,0,0,0,1.3.57,1.47,1.47,0,0,0,1.31-.54,3.19,3.19,0,0,0,.37-1.75l.58,2.63h-.76a1.85,1.85,0,0,1-.67,1.24A2.3,2.3,0,0,1,303.46,33.07Zm-2.54,3.57-.08-1.84,2.75-.08a2.2,2.2,0,0,0,1.65-.6,2.49,2.49,0,0,0,.51-1.69V26.38l.16-1.75h2v7.55a4.41,4.41,0,0,1-1.07,3.26,5.09,5.09,0,0,1-3.44,1.13Z"/><path class="cls-2" d="M310.32,32.91V31h3.34v1.95Zm.49-6.33V24.63h4.88v1.95Zm3.69-3.07a1.41,1.41,0,0,1-1-.37,1.45,1.45,0,0,1,0-2,1.58,1.58,0,0,1,2,0,1.43,1.43,0,0,1,0,2A1.4,1.4,0,0,1,314.5,23.51Zm-1,9.4V25.1h2.19v7.81Zm2,0V31h2.7v1.95Z"/><path class="cls-2" d="M324.43,33.07A4.88,4.88,0,0,1,321,32a4.12,4.12,0,0,1-1.22-3.2,4.53,4.53,0,0,1,1-3.15,4.37,4.37,0,0,1,5.76-.09,4.2,4.2,0,0,1,1,3c0,.37,0,.73-.05,1.07h-6.31V28.14h4.2a1.74,1.74,0,0,0-.44-1.28,1.66,1.66,0,0,0-1.24-.45,1.63,1.63,0,0,0-1.33.59,2.65,2.65,0,0,0-.47,1.68,2.23,2.23,0,0,0,.7,1.78,3,3,0,0,0,2,.61,11.07,11.07,0,0,0,1.15-.06c.37,0,.76-.09,1.15-.16l.21,2q-.83.13-1.5.18C325.18,33.05,324.78,33.07,324.43,33.07Z"/><path class="cls-2" d="M332.81,33.07q-1,0-1.74-.06a10.48,10.48,0,0,1-1.33-.18l.26-2c.68.08,1.25.15,1.71.19s.83.06,1.1.06a6,6,0,0,0,1.59-.15c.33-.09.5-.25.5-.46a.39.39,0,0,0-.12-.3,1.17,1.17,0,0,0-.39-.19l-2.8-.78a2.6,2.6,0,0,1-1.29-.73,2,2,0,0,1-.43-1.34,2.13,2.13,0,0,1,1.16-2,7.42,7.42,0,0,1,3.54-.66c.37,0,.75,0,1.15,0l1.26.12-.23,2-1.29-.09-.93,0a8.87,8.87,0,0,0-1.85.14q-.57.14-.57.45a.38.38,0,0,0,.12.3.85.85,0,0,0,.37.17l2.4.64a3.74,3.74,0,0,1,1.66.84,1.94,1.94,0,0,1,.55,1.44,2.12,2.12,0,0,1-1.09,2A6.64,6.64,0,0,1,332.81,33.07Z"/><path class="cls-1" d="M128,150H12A11.79,11.79,0,0,1,0,138.43V101.57A11.83,11.83,0,0,1,12,90H128a11.79,11.79,0,0,1,12,11.57v36.86A11.83,11.83,0,0,1,128,150Z"/><path class="cls-2" d="M17,109.57v-1.94H25v1.94Zm2.06,2.3v-6.74H21.2v6.74Zm4.19,4.2a4.87,4.87,0,0,1-3.21-.86,3.47,3.47,0,0,1-1-2.75v-1.08H21.2v.87a1.72,1.72,0,0,0,.51,1.38,2.54,2.54,0,0,0,1.66.43c.25,0,.52,0,.8,0l1-.12.19,2c-.35.06-.7.11-1,.14S23.6,116.07,23.21,116.07Z"/><path class="cls-2" d="M26.76,115.91V114.1h6v1.81Zm.33-6.47v-1.81h3.24l.16,1.81Zm1.49,6.47v-8.28h1.86l.32,2.37v5.91Zm2.18-3.56-.5-2.85H31a1.94,1.94,0,0,1,2.19-2,2.21,2.21,0,0,1,1.88.87,4.14,4.14,0,0,1,.65,2.5H33.53a1.55,1.55,0,0,0-.28-1,1.09,1.09,0,0,0-.89-.33,1.27,1.27,0,0,0-1.2.75A4.74,4.74,0,0,0,30.76,112.35Z"/><path class="cls-2" d="M39.5,116.07a3.21,3.21,0,0,1-2.13-.65,2.32,2.32,0,0,1-.76-1.85,2.52,2.52,0,0,1,1-2.13,4.68,4.68,0,0,1,2.83-.74,8.73,8.73,0,0,1,1.22.07,8,8,0,0,1,1,.22l-.36,1.65a5.13,5.13,0,0,0-.93-.14l-.87,0c-1.13,0-1.7.31-1.7.94a.73.73,0,0,0,.31.64,1.49,1.49,0,0,0,.9.23,2.52,2.52,0,0,0,1.19-.26,1.78,1.78,0,0,0,.72-.66,1.56,1.56,0,0,0,.24-.82V112l.3,2.12h-.69l.29-.25a2.32,2.32,0,0,1-.34,1.2,1.93,1.93,0,0,1-.89.72A3.53,3.53,0,0,1,39.5,116.07Zm2.91-.08-.18-2.45,0-1.08v-1.62a1,1,0,0,0-.59-1,4.09,4.09,0,0,0-1.75-.34l-2.19-.06.16-1.92,1.87,0a6,6,0,0,1,3.47.89A3,3,0,0,1,44.3,111V114l1.19.17v1.72Z"/><path class="cls-2" d="M49.71,116.07A3,3,0,0,1,47.22,115a6.13,6.13,0,0,1,0-6.36,3,3,0,0,1,2.5-1.13,2.2,2.2,0,0,1,1.43.41,2,2,0,0,1,.64,1.25h.71l-.5,2.65a2.94,2.94,0,0,0-.42-1.76,1.48,1.48,0,0,0-1.26-.56,1.54,1.54,0,0,0-1.29.61,2.81,2.81,0,0,0-.45,1.71A2.85,2.85,0,0,0,49,113.5a1.54,1.54,0,0,0,1.3.57,1.47,1.47,0,0,0,1.31-.54,3.19,3.19,0,0,0,.37-1.75l.58,2.63h-.76a1.85,1.85,0,0,1-.67,1.24A2.3,2.3,0,0,1,49.71,116.07Zm2.6-.08L52,114.35V104.19h2.19v11.72Z"/><path class="cls-2" d="M56.57,115.91v-2h3.34v2Zm.49-6.33v-2h4.88v2Zm3.69-3.07a1.41,1.41,0,0,1-1-.37,1.45,1.45,0,0,1,0-2,1.58,1.58,0,0,1,2,0,1.43,1.43,0,0,1,0,2A1.4,1.4,0,0,1,60.75,106.51Zm-1,9.4V108.1h2.19v7.81Zm2,0v-2h2.7v2Z"/><path class="cls-2" d="M65.57,109.57v-1.94h8.05v1.94Zm2.06,2.3v-6.74h2.18v6.74Zm4.19,4.2a4.82,4.82,0,0,1-3.2-.86,3.47,3.47,0,0,1-1-2.75v-1.08h2.18v.87a1.72,1.72,0,0,0,.51,1.38,2.54,2.54,0,0,0,1.66.43c.25,0,.52,0,.8,0l1-.12.2,2c-.36.06-.71.11-1,.14S72.21,116.07,71.82,116.07Z"/><path class="cls-2" d="M76,115.91v-2h3.34v2Zm.49-6.33v-2h4.87v2Zm3.68-3.07a1.4,1.4,0,0,1-1-.37,1.43,1.43,0,0,1,0-2,1.58,1.58,0,0,1,2,0,1.45,1.45,0,0,1,0,2A1.41,1.41,0,0,1,80.19,106.51Zm-1,9.4V108.1h2.18v7.81Zm2,0v-2h2.71v2Z"/><path class="cls-2" d="M89.45,116.07a3.69,3.69,0,0,1-2.88-1.13,5.45,5.45,0,0,1,0-6.35,4.25,4.25,0,0,1,5.75,0,5.45,5.45,0,0,1,0,6.35A3.68,3.68,0,0,1,89.45,116.07Zm0-2a1.42,1.42,0,0,0,1.22-.6,2.83,2.83,0,0,0,.43-1.69,2.87,2.87,0,0,0-.43-1.7,1.57,1.57,0,0,0-2.45,0,2.94,2.94,0,0,0-.43,1.7,2.91,2.91,0,0,0,.43,1.69A1.43,1.43,0,0,0,89.45,114.06Z"/><path class="cls-2" d="M95.53,115.91v-8.28h2l.23,1.75v6.53Zm5.08,0V111a1.83,1.83,0,0,0-.32-1.15,1.1,1.1,0,0,0-.91-.41c-1.1,0-1.66.77-1.66,2.3l-.5-2.65h.72a1.94,1.94,0,0,1,.59-1.25,2.13,2.13,0,0,1,1.42-.41,2.76,2.76,0,0,1,2.11.8,3.15,3.15,0,0,1,.74,2.25v5.39Z"/><path class="cls-2" d="M107.56,116.07a3.21,3.21,0,0,1-2.13-.65,2.29,2.29,0,0,1-.76-1.85,2.51,2.51,0,0,1,1-2.13,4.72,4.72,0,0,1,2.83-.74,8.64,8.64,0,0,1,1.22.07,8,8,0,0,1,1,.22l-.35,1.65a5.1,5.1,0,0,0-.94-.14l-.86,0c-1.14,0-1.7.31-1.7.94a.75.75,0,0,0,.3.64,1.53,1.53,0,0,0,.9.23,2.49,2.49,0,0,0,1.19-.26,1.78,1.78,0,0,0,.72-.66,1.56,1.56,0,0,0,.24-.82V112l.31,2.12h-.69l.28-.25a2.23,2.23,0,0,1-.34,1.2,1.9,1.9,0,0,1-.88.72A3.57,3.57,0,0,1,107.56,116.07Zm2.91-.08-.19-2.45,0-1.08v-1.62a1,1,0,0,0-.59-1,4,4,0,0,0-1.74-.34l-2.2-.06.16-1.92,1.87,0a5.94,5.94,0,0,1,3.47.89,2.93,2.93,0,0,1,1.14,2.5V114l1.19.17v1.72Z"/><path class="cls-2" d="M114.41,106.14v-2H117v2Zm5.48,9.93a2.9,2.9,0,0,1-2.34-.86,4.34,4.34,0,0,1-.71-2.75v-8.27H119v8.19a2.52,2.52,0,0,0,.11.84.82.82,0,0,0,.44.49,2.34,2.34,0,0,0,1,.15,7.36,7.36,0,0,0,1.8-.29l.25,2.17a11.43,11.43,0,0,1-1.33.25A11.75,11.75,0,0,1,119.89,116.07Z"/><path class="cls-2" d="M17.75,139.5V127.63h2l.16,1.75V139.5Zm4.49-3.43a2.28,2.28,0,0,1-1.44-.42,1.81,1.81,0,0,1-.67-1.24h-.77l.59-2.63a3.19,3.19,0,0,0,.37,1.75,1.47,1.47,0,0,0,1.3.54,1.53,1.53,0,0,0,1.3-.57,3.46,3.46,0,0,0,0-3.43,1.52,1.52,0,0,0-1.29-.61,1.48,1.48,0,0,0-1.25.56,2.94,2.94,0,0,0-.42,1.76l-.5-2.65h.63a2,2,0,0,1,.66-1.25,2.31,2.31,0,0,1,1.48-.41,3,3,0,0,1,2.5,1.13,6.13,6.13,0,0,1,0,6.36A3,3,0,0,1,22.24,136.07Z"/><path class="cls-2" d="M26.76,135.91V134.1h6v1.81Zm.33-6.47v-1.81h3.24l.16,1.81Zm1.49,6.47v-8.28h1.86l.32,2.37v5.91Zm2.18-3.56-.5-2.85H31a1.94,1.94,0,0,1,2.19-2,2.21,2.21,0,0,1,1.88.87,4.14,4.14,0,0,1,.65,2.5H33.53a1.55,1.55,0,0,0-.28-1.05,1.09,1.09,0,0,0-.89-.33,1.27,1.27,0,0,0-1.2.75A4.74,4.74,0,0,0,30.76,132.35Z"/><path class="cls-2" d="M40.83,136.07A3.68,3.68,0,0,1,38,134.94a5.45,5.45,0,0,1,0-6.35,3.71,3.71,0,0,1,2.87-1.12,3.72,3.72,0,0,1,2.88,1.12,5.45,5.45,0,0,1,0,6.35A3.69,3.69,0,0,1,40.83,136.07Zm0-2a1.43,1.43,0,0,0,1.23-.6,2.91,2.91,0,0,0,.43-1.69,2.94,2.94,0,0,0-.43-1.7,1.57,1.57,0,0,0-2.45,0,2.87,2.87,0,0,0-.43,1.7,2.83,2.83,0,0,0,.43,1.69A1.42,1.42,0,0,0,40.83,134.06Z"/><path class="cls-2" d="M49.71,136.07A3,3,0,0,1,47.22,135a6.13,6.13,0,0,1,0-6.36,3,3,0,0,1,2.5-1.13,2.34,2.34,0,0,1,1.49.41,2,2,0,0,1,.66,1.25h.63l-.5,2.65a2.94,2.94,0,0,0-.42-1.76,1.48,1.48,0,0,0-1.26-.56,1.54,1.54,0,0,0-1.29.61,2.81,2.81,0,0,0-.45,1.71A2.85,2.85,0,0,0,49,133.5a1.54,1.54,0,0,0,1.3.57,1.47,1.47,0,0,0,1.31-.54,3.19,3.19,0,0,0,.37-1.75l.58,2.63h-.76a1.85,1.85,0,0,1-.67,1.24A2.3,2.3,0,0,1,49.71,136.07Zm-2.54,3.57-.08-1.84,2.75-.08a2.2,2.2,0,0,0,1.65-.6,2.49,2.49,0,0,0,.51-1.69v-6.05l.16-1.75h2v7.55a4.41,4.41,0,0,1-1.07,3.26,5.09,5.09,0,0,1-3.44,1.13Z"/><path class="cls-2" d="M55.93,135.91V134.1h6v1.81Zm.32-6.47v-1.81h3.24l.16,1.81Zm1.49,6.47v-8.28h1.87l.32,2.37v5.91Zm2.19-3.56-.5-2.85h.73a2,2,0,0,1,2.2-2,2.21,2.21,0,0,1,1.88.87,4.14,4.14,0,0,1,.65,2.5H62.7a1.55,1.55,0,0,0-.28-1.05,1.11,1.11,0,0,0-.89-.33,1.27,1.27,0,0,0-1.2.75A4.61,4.61,0,0,0,59.93,132.35Z"/><path class="cls-2" d="M68.67,136.07a3.21,3.21,0,0,1-2.13-.65,2.29,2.29,0,0,1-.76-1.85,2.5,2.5,0,0,1,1-2.13,4.66,4.66,0,0,1,2.82-.74,8.64,8.64,0,0,1,1.22.07,7.71,7.71,0,0,1,1,.22l-.35,1.65a5.13,5.13,0,0,0-.93-.14l-.87,0c-1.14,0-1.7.31-1.7.94a.75.75,0,0,0,.3.64,1.53,1.53,0,0,0,.9.23,2.54,2.54,0,0,0,1.2-.26,1.82,1.82,0,0,0,.71-.66,1.56,1.56,0,0,0,.24-.82V132l.31,2.12H71l.28-.25a2.23,2.23,0,0,1-.34,1.2,1.9,1.9,0,0,1-.88.72A3.53,3.53,0,0,1,68.67,136.07Zm2.91-.08-.19-2.45,0-1.08v-1.62a1,1,0,0,0-.59-1,4,4,0,0,0-1.74-.34l-2.2-.06.16-1.92,1.88,0a5.92,5.92,0,0,1,3.46.89,2.93,2.93,0,0,1,1.14,2.5V134l1.19.17v1.72Z"/><path class="cls-2" d="M75.63,135.91v-8.28h2l.19,1.75v6.53Zm3.3,0v-5.77c0-.46-.17-.7-.52-.7s-.62.31-.62.93l-.5-1.71h.62a1.22,1.22,0,0,1,1.3-1.19,1.2,1.2,0,0,1,1,.45,2.11,2.11,0,0,1,.36,1.35v6.64Zm2.73,0V130.3c0-.57-.17-.86-.52-.86s-.58.31-.58.93L80,128.66h.73a1.32,1.32,0,0,1,.45-.87,1.49,1.49,0,0,1,1-.32,1.63,1.63,0,0,1,1.27.46,2.26,2.26,0,0,1,.4,1.5v6.48Z"/><path class="cls-2" d="M85.35,135.91v-8.28h2l.2,1.75v6.53Zm3.3,0v-5.77c0-.46-.17-.7-.52-.7s-.61.31-.61.93L87,128.66h.62a1.22,1.22,0,0,1,1.3-1.19,1.2,1.2,0,0,1,1,.45,2.11,2.11,0,0,1,.36,1.35v6.64Zm2.73,0V130.3c0-.57-.17-.86-.52-.86s-.58.31-.58.93l-.58-1.71h.73a1.24,1.24,0,0,1,.45-.87,1.49,1.49,0,0,1,1-.32,1.59,1.59,0,0,1,1.26.46,2.26,2.26,0,0,1,.41,1.5v6.48Z"/><path class="cls-2" d="M95.46,135.91V134H98.8v1.95Zm.49-6.33v-2h4.88v2Zm3.69-3.07a1.37,1.37,0,0,1-1-.37,1.43,1.43,0,0,1,0-2,1.37,1.37,0,0,1,1-.37,1.4,1.4,0,0,1,1,.37,1.43,1.43,0,0,1,0,2A1.4,1.4,0,0,1,99.64,126.51Zm-1,9.4V128.1h2.19v7.81Zm2,0V134h2.7v1.95Z"/><path class="cls-2" d="M105.25,135.91v-8.28h2l.24,1.75v6.53Zm5.08,0V131a1.83,1.83,0,0,0-.32-1.15,1.1,1.1,0,0,0-.91-.41c-1.1,0-1.65.77-1.65,2.3l-.5-2.65h.71a2,2,0,0,1,.59-1.25,2.14,2.14,0,0,1,1.43-.41,2.74,2.74,0,0,1,2.1.8,3.15,3.15,0,0,1,.75,2.25v5.39Z"/><path class="cls-2" d="M117.76,136.07a3,3,0,0,1-2.48-1.11,6.13,6.13,0,0,1,0-6.36,3,3,0,0,1,2.5-1.13,2.31,2.31,0,0,1,1.48.41,2,2,0,0,1,.66,1.25h.64l-.51,2.65a3,3,0,0,0-.41-1.76,1.48,1.48,0,0,0-1.26-.56,1.52,1.52,0,0,0-1.29.61,3.46,3.46,0,0,0,0,3.43,1.53,1.53,0,0,0,1.3.57,1.49,1.49,0,0,0,1.31-.54,3.29,3.29,0,0,0,.36-1.75l.59,2.63h-.76a1.86,1.86,0,0,1-.68,1.24A2.28,2.28,0,0,1,117.76,136.07Zm-2.54,3.57-.08-1.84,2.76-.08a2.19,2.19,0,0,0,1.64-.6,2.49,2.49,0,0,0,.51-1.69v-6.05l.16-1.75h2v7.55a4.37,4.37,0,0,1-1.08,3.26,5.06,5.06,0,0,1-3.43,1.13Z"/><path class="cls-1" d="M128,240H12A11.79,11.79,0,0,1,0,228.43V191.57A11.83,11.83,0,0,1,12,180H128a11.79,11.79,0,0,1,12,11.57v36.86A11.83,11.83,0,0,1,128,240Z"/><path class="cls-2" d="M27.45,215.07q-5.5,0-5.5-5.72a5.94,5.94,0,0,1,1.38-4.2,5.12,5.12,0,0,1,3.93-1.49,5.31,5.31,0,0,1,2,.36,2.85,2.85,0,0,1,1.34,1l-1.2,1.51a2.37,2.37,0,0,0-.93-.67,3.05,3.05,0,0,0-1.22-.24,2.84,2.84,0,0,0-2.23,1,3.92,3.92,0,0,0-.84,2.69c0,2.55,1.18,3.83,3.52,3.83a6.09,6.09,0,0,0,2.32-.47l.37,1.91A8.39,8.39,0,0,1,27.45,215.07Z"/><path class="cls-2" d="M34.18,218.32l.65-5.39h2.41l-1,5.39Z"/><path class="cls-2" d="M56.62,215.07q-5.5,0-5.5-5.72a5.94,5.94,0,0,1,1.38-4.2,5.09,5.09,0,0,1,3.92-1.49,5.37,5.37,0,0,1,2,.36,2.85,2.85,0,0,1,1.34,1l-1.2,1.51a2.53,2.53,0,0,0-.93-.67,3.09,3.09,0,0,0-1.22-.24,2.84,2.84,0,0,0-2.23,1,3.92,3.92,0,0,0-.84,2.69q0,3.82,3.52,3.83a6.09,6.09,0,0,0,2.32-.47l.37,1.91A8.43,8.43,0,0,1,56.62,215.07Z"/><path class="cls-2" d="M61.09,210.35v-2h8.1v2Zm3,3.08v-8.11h2.17v8.11Z"/><path class="cls-2" d="M70.81,210.35v-2h8.1v2Zm3,3.08v-8.11H76v8.11Z"/><path class="cls-2" d="M82.79,218.32l.65-5.39h2.42l-1,5.39Z"/><path class="cls-2" d="M105.23,215.07q-5.51,0-5.5-5.72a5.94,5.94,0,0,1,1.38-4.2,5.11,5.11,0,0,1,3.92-1.49,5.37,5.37,0,0,1,2,.36,2.85,2.85,0,0,1,1.34,1l-1.2,1.51a2.53,2.53,0,0,0-.93-.67,3.09,3.09,0,0,0-1.22-.24,2.84,2.84,0,0,0-2.23,1,3.92,3.92,0,0,0-.84,2.69q0,3.82,3.52,3.83a6.09,6.09,0,0,0,2.32-.47l.37,1.91A8.39,8.39,0,0,1,105.23,215.07Z"/><path class="cls-2" d="M109.56,208.18v-1.94h8.38v1.94Zm0,4.31v-1.94h8.38v1.94Zm1,2.42,1-11.09h2l-1,11.09Zm3.4,0,1-11.09h2l-1,11.09Z"/><path class="cls-1" d="M128,330H12A11.79,11.79,0,0,1,0,318.43V281.57A11.83,11.83,0,0,1,12,270H128a11.79,11.79,0,0,1,12,11.57v36.86A11.83,11.83,0,0,1,128,330Z"/><path class="cls-2" d="M26,305.07a4.17,4.17,0,0,1-3-1,3.86,3.86,0,0,1-1.06-2.9h2.23a2,2,0,0,0,.49,1.46,2.17,2.17,0,0,0,2.82,0,2,2,0,0,0,.5-1.46v-7.31h2.14v7.31A3.84,3.84,0,0,1,29.05,304,4.23,4.23,0,0,1,26,305.07Zm-.68-9.36v-1.89h3.77v1.89Z"/><path class="cls-2" d="M34.64,305.07a3.21,3.21,0,0,1-2.13-.65,2.32,2.32,0,0,1-.76-1.85,2.5,2.5,0,0,1,1-2.13,4.7,4.7,0,0,1,2.83-.74,8.58,8.58,0,0,1,1.21.07,8.19,8.19,0,0,1,1.05.22l-.36,1.65a5.13,5.13,0,0,0-.93-.14l-.87,0c-1.13,0-1.7.31-1.7.94a.73.73,0,0,0,.31.64,1.49,1.49,0,0,0,.9.23,2.52,2.52,0,0,0,1.19-.26,1.78,1.78,0,0,0,.72-.66,1.64,1.64,0,0,0,.23-.82V301l.31,2.12H37l.29-.25a2.32,2.32,0,0,1-.34,1.2,1.93,1.93,0,0,1-.89.72A3.53,3.53,0,0,1,34.64,305.07Zm2.91-.08-.18-2.45,0-1.08v-1.62a1,1,0,0,0-.58-1,4.06,4.06,0,0,0-1.75-.34l-2.2-.06.17-1.92,1.87,0a6,6,0,0,1,3.47.89,3,3,0,0,1,1.13,2.5V303l1.19.17v1.72Z"/><path class="cls-2" d="M44.29,304.91l-2.95-8.28h2.24l2,6.42h.15l2-6.42H50l-2.94,8.28Z"/><path class="cls-2" d="M54.09,305.07a3.19,3.19,0,0,1-2.13-.65,2.29,2.29,0,0,1-.76-1.85,2.51,2.51,0,0,1,1-2.13A4.72,4.72,0,0,1,55,299.7a8.64,8.64,0,0,1,1.22.07,8,8,0,0,1,1,.22l-.36,1.65a4.89,4.89,0,0,0-.93-.14l-.86,0c-1.14,0-1.71.31-1.71.94a.76.76,0,0,0,.31.64,1.53,1.53,0,0,0,.9.23,2.49,2.49,0,0,0,1.19-.26,1.78,1.78,0,0,0,.72-.66,1.56,1.56,0,0,0,.24-.82V301l.31,2.12H56.4l.28-.25a2.32,2.32,0,0,1-.34,1.2,1.93,1.93,0,0,1-.89.72A3.48,3.48,0,0,1,54.09,305.07ZM57,305l-.19-2.45,0-1.08v-1.62a1,1,0,0,0-.59-1,4,4,0,0,0-1.74-.34l-2.2-.06.16-1.92,1.87,0a6,6,0,0,1,3.47.89,2.92,2.92,0,0,1,1.13,2.5V303l1.2.17v1.72Z"/><path class="cls-2" d="M64.74,305.07a11.78,11.78,0,0,1-1.9-.16,8.55,8.55,0,0,1-1.65-.45l.29-2.11a10.92,10.92,0,0,0,1.77.55,7.53,7.53,0,0,0,1.62.2,2.45,2.45,0,0,0,1.33-.3,1,1,0,0,0,.46-.85c0-.49-.31-.87-1-1.16L64.06,300a5.16,5.16,0,0,1-1.89-1.43,3,3,0,0,1-.68-1.88,2.73,2.73,0,0,1,1-2.25,4.4,4.4,0,0,1,2.82-.8,5.6,5.6,0,0,1,2,.36,5.15,5.15,0,0,1,1.69,1l-1.47,1.63a4.84,4.84,0,0,0-1.13-.79,2.42,2.42,0,0,0-1.09-.28,1.86,1.86,0,0,0-1.11.29,1,1,0,0,0-.4.85,1,1,0,0,0,.28.7,2.6,2.6,0,0,0,.8.59l1.55.77a5.71,5.71,0,0,1,1.88,1.43A2.7,2.7,0,0,1,69,302a2.67,2.67,0,0,1-1.1,2.28A5.32,5.32,0,0,1,64.74,305.07Z"/><path class="cls-2" d="M75.87,305.07A5.33,5.33,0,0,1,72.24,304a4,4,0,0,1-1.28-3.2,4.16,4.16,0,0,1,1.17-3.15,4.61,4.61,0,0,1,3.33-1.13,4.86,4.86,0,0,1,2.28.5,2.86,2.86,0,0,1,1.35,1.42l-1.59,1.22a2.49,2.49,0,0,0-.9-.84,2.59,2.59,0,0,0-1.2-.29,2.29,2.29,0,0,0-1.45,4,3.24,3.24,0,0,0,2.11.61,11.12,11.12,0,0,0,1.16-.06c.39,0,.77-.08,1.13-.14l.23,2a8.61,8.61,0,0,1-1.35.19C76.76,305.05,76.31,305.07,75.87,305.07Z"/><path class="cls-2" d="M80.23,304.91V303.1h6v1.81Zm.33-6.47v-1.81H83.8l.16,1.81Zm1.49,6.47v-8.28h1.86l.32,2.37v5.91Zm2.18-3.56-.5-2.85h.74a2,2,0,0,1,2.2-2,2.19,2.19,0,0,1,1.87.87,4.07,4.07,0,0,1,.65,2.5H87a1.61,1.61,0,0,0-.28-1,1.13,1.13,0,0,0-.9-.33,1.29,1.29,0,0,0-1.2.75A4.74,4.74,0,0,0,84.23,301.35Z"/><path class="cls-2" d="M90.6,304.91v-2h3.34v2Zm.49-6.33v-1.95H96v1.95Zm3.69-3.07a1.41,1.41,0,0,1-1-.37,1.45,1.45,0,0,1,0-2,1.58,1.58,0,0,1,2,0,1.43,1.43,0,0,1,0,2A1.4,1.4,0,0,1,94.78,295.51Zm-1,9.4V297.1H96v7.81Zm2,0v-2h2.71v2Z"/><path class="cls-2" d="M100.39,308.5V296.63h2l.17,1.75V308.5Zm4.49-3.43a2.28,2.28,0,0,1-1.44-.42,1.81,1.81,0,0,1-.67-1.24H102l.59-2.63a3.19,3.19,0,0,0,.37,1.75,1.47,1.47,0,0,0,1.3.54,1.53,1.53,0,0,0,1.3-.57,3.46,3.46,0,0,0,0-3.43,1.52,1.52,0,0,0-1.29-.61A1.48,1.48,0,0,0,103,299a2.94,2.94,0,0,0-.42,1.76l-.51-2.65h.64a2,2,0,0,1,.66-1.25,2.31,2.31,0,0,1,1.48-.41,3,3,0,0,1,2.5,1.13,6.13,6.13,0,0,1,0,6.36A3,3,0,0,1,104.88,305.07Z"/><path class="cls-2" d="M109.32,298.57v-1.94h8.05v1.94Zm2.06,2.3v-6.74h2.18v6.74Zm4.19,4.2a4.82,4.82,0,0,1-3.2-.86,3.47,3.47,0,0,1-1-2.75v-1.08h2.18v.87a1.72,1.72,0,0,0,.51,1.38,2.54,2.54,0,0,0,1.66.43c.25,0,.52,0,.8,0l1-.12.2,2c-.36.06-.71.11-1,.14S116,305.07,115.57,305.07Z"/><path class="cls-1" d="M128,420H12A11.79,11.79,0,0,1,0,408.43V371.57A11.83,11.83,0,0,1,12,360H128a11.79,11.79,0,0,1,12,11.57v36.86A11.83,11.83,0,0,1,128,420Z"/><path class="cls-2" d="M42,394.91V383.82h2.14v11.09Zm1.95-3.18v-1.9h1.58a2.3,2.3,0,0,0,1.64-.56,2.12,2.12,0,0,0,.58-1.57,1.88,1.88,0,0,0-.58-1.47,2.42,2.42,0,0,0-1.64-.52H44v-1.89h1.55a5.06,5.06,0,0,1,3.34,1A3.38,3.38,0,0,1,50,387.57a4,4,0,0,1-1.18,3.07,4.73,4.73,0,0,1-3.34,1.09Z"/><path class="cls-2" d="M53.75,394.91l-2.89-8.28h2.33l2.13,6.48h.39v1.8ZM51,398.66,51,396.82l1.48-.15a3.49,3.49,0,0,0,1.3-.39,2.78,2.78,0,0,0,.93-.91,6.19,6.19,0,0,0,.67-1.58l2.07-7.16h2.33l-2.42,7.55a9.29,9.29,0,0,1-1.11,2.4,4.37,4.37,0,0,1-1.5,1.36,5.52,5.52,0,0,1-2.08.56Z"/><path class="cls-2" d="M60.71,388.57v-1.94h8.05v1.94Zm2.06,2.3v-6.74H65v6.74Zm4.19,4.2a4.87,4.87,0,0,1-3.21-.86,3.47,3.47,0,0,1-1-2.75v-1.08H65v.87a1.72,1.72,0,0,0,.51,1.38,2.54,2.54,0,0,0,1.66.43c.25,0,.52,0,.8,0l1-.12.19,2c-.35.06-.7.11-1,.14S67.35,395.07,67,395.07Z"/><path class="cls-2" d="M71.22,394.91V383.19h2.2v11.72Zm5.08,0v-5a1.57,1.57,0,0,0-.32-1.07,1.12,1.12,0,0,0-.91-.38c-1.1,0-1.65.73-1.65,2.18l-.5-2.51h.71a2,2,0,0,1,.59-1.25,2.16,2.16,0,0,1,1.43-.41,2.74,2.74,0,0,1,2.1.8,3.15,3.15,0,0,1,.75,2.25v5.39Z"/><path class="cls-2" d="M84.58,395.07a3.68,3.68,0,0,1-2.87-1.13,5.45,5.45,0,0,1,0-6.35,4.25,4.25,0,0,1,5.75,0,5.45,5.45,0,0,1,0,6.35A3.69,3.69,0,0,1,84.58,395.07Zm0-2a1.43,1.43,0,0,0,1.23-.6,2.91,2.91,0,0,0,.43-1.69,2.94,2.94,0,0,0-.43-1.7,1.57,1.57,0,0,0-2.45,0,2.87,2.87,0,0,0-.43,1.7,2.83,2.83,0,0,0,.43,1.69A1.42,1.42,0,0,0,84.58,393.06Z"/><path class="cls-2" d="M90.67,394.91v-8.28h2l.23,1.75v6.53Zm5.08,0V390a1.83,1.83,0,0,0-.32-1.15,1.11,1.11,0,0,0-.91-.41c-1.11,0-1.66.77-1.66,2.3l-.5-2.65h.71a2,2,0,0,1,.6-1.25,2.13,2.13,0,0,1,1.42-.41,2.76,2.76,0,0,1,2.11.8,3.15,3.15,0,0,1,.74,2.25v5.39Z"/><path class="cls-1" d="M548,240H432a11.79,11.79,0,0,1-12-11.57V191.57A11.83,11.83,0,0,1,432,180H548a11.79,11.79,0,0,1,12,11.57v36.86A11.83,11.83,0,0,1,548,240Z"/><path class="cls-2" d="M452.29,214.91V203.19h2.2v11.58Zm2.44.16c-.41,0-.81,0-1.21,0s-.81-.06-1.23-.11l.81-2.1a2.6,2.6,0,0,0,.94.23l1,0a2.82,2.82,0,0,0,2.1-.74,2.88,2.88,0,0,0,.74-2.11,1.91,1.91,0,0,0-.41-1.3,1.49,1.49,0,0,0-1.16-.46,1.61,1.61,0,0,0-1.85,1.79l-.5-2.12h.73a1.79,1.79,0,0,1,2-1.66,3.22,3.22,0,0,1,2.51,1,4,4,0,0,1,.88,2.77,4.57,4.57,0,0,1-1.41,3.58A5.83,5.83,0,0,1,454.73,215.07Z"/><path class="cls-2" d="M464.37,215.07a3.17,3.17,0,0,1-2.13-.65,2.29,2.29,0,0,1-.77-1.85,2.52,2.52,0,0,1,1-2.13,4.7,4.7,0,0,1,2.83-.74,8.64,8.64,0,0,1,1.22.07,8,8,0,0,1,1,.22l-.36,1.65a4.89,4.89,0,0,0-.93-.14l-.87,0c-1.13,0-1.7.31-1.7.94a.73.73,0,0,0,.31.64,1.51,1.51,0,0,0,.9.23,2.52,2.52,0,0,0,1.19-.26,1.78,1.78,0,0,0,.72-.66,1.56,1.56,0,0,0,.24-.82V211l.31,2.12h-.69l.28-.25a2.32,2.32,0,0,1-.34,1.2,1.93,1.93,0,0,1-.89.72A3.48,3.48,0,0,1,464.37,215.07Zm2.91-.08-.19-2.45,0-1.08v-1.62a1,1,0,0,0-.59-1,4,4,0,0,0-1.75-.34l-2.19-.06.16-1.92,1.87,0a6,6,0,0,1,3.47.89,2.92,2.92,0,0,1,1.13,2.5V213l1.19.17v1.72Z"/><path class="cls-2" d="M476.42,215.07A5.3,5.3,0,0,1,472.8,214a4,4,0,0,1-1.28-3.2,4.16,4.16,0,0,1,1.17-3.15,4.58,4.58,0,0,1,3.33-1.13,4.92,4.92,0,0,1,2.28.5,3,3,0,0,1,1.35,1.42l-1.59,1.22a2.46,2.46,0,0,0-2.11-1.13,2,2,0,0,0-2.19,2.2,2.16,2.16,0,0,0,.75,1.77,3.2,3.2,0,0,0,2.11.61,11.27,11.27,0,0,0,1.16-.06c.39,0,.76-.08,1.13-.14l.23,2a8.57,8.57,0,0,1-1.36.19C477.32,215.05,476.87,215.07,476.42,215.07Z"/><path class="cls-2" d="M481.44,214.91V203.19h2.19v11.72Zm1.35-2.95v-2h1a3.38,3.38,0,0,0,1.59-.33,2.17,2.17,0,0,0,1-1,6.5,6.5,0,0,0,.52-2h2.26a7.1,7.1,0,0,1-1.57,4,4.37,4.37,0,0,1-3.36,1.32Zm4.26,2.95-2.1-4,2-.64,2.74,4.67Z"/><path class="cls-2" d="M490.67,210.35v-2h8.38v2Z"/><path class="cls-2" d="M505.27,215.07a4.89,4.89,0,0,1-3.45-1.12,4.12,4.12,0,0,1-1.21-3.2,4.48,4.48,0,0,1,1-3.15,4.37,4.37,0,0,1,5.76-.09,4.24,4.24,0,0,1,1,3c0,.37,0,.73,0,1.07h-6.3v-1.47h4.2a1.71,1.71,0,0,0-.45-1.28,1.86,1.86,0,0,0-2.57.14,2.65,2.65,0,0,0-.47,1.68,2.23,2.23,0,0,0,.7,1.78,3,3,0,0,0,2,.61,10.93,10.93,0,0,0,1.15-.06c.38,0,.76-.09,1.16-.16l.21,2c-.55.09-1.05.15-1.51.18S505.62,215.07,505.27,215.07Z"/><path class="cls-2" d="M510.67,214.91v-8.28h2l.23,1.75v6.53Zm5.08,0V210a1.83,1.83,0,0,0-.32-1.15,1.11,1.11,0,0,0-.91-.41c-1.11,0-1.66.77-1.66,2.3l-.5-2.65h.71a2,2,0,0,1,.6-1.25,2.13,2.13,0,0,1,1.42-.41,2.76,2.76,0,0,1,2.11.8,3.15,3.15,0,0,1,.74,2.25v5.39Z"/><path class="cls-2" d="M523.18,215.07A3,3,0,0,1,520.7,214a6.13,6.13,0,0,1,0-6.36,3,3,0,0,1,2.49-1.13,2.23,2.23,0,0,1,1.44.41,2.07,2.07,0,0,1,.63,1.25H526l-.5,2.65a2.94,2.94,0,0,0-.42-1.76,1.46,1.46,0,0,0-1.26-.56,1.52,1.52,0,0,0-1.28.61,2.74,2.74,0,0,0-.46,1.71,2.85,2.85,0,0,0,.44,1.72,1.55,1.55,0,0,0,1.3.57,1.46,1.46,0,0,0,1.31-.54,3.19,3.19,0,0,0,.37-1.75l.58,2.63h-.76a1.81,1.81,0,0,1-.67,1.24A2.28,2.28,0,0,1,523.18,215.07Zm2.61-.08-.32-1.64V203.19h2.2v11.72Z"/><path class="cls-1" d="M548,330H432a11.79,11.79,0,0,1-12-11.57V281.57A11.83,11.83,0,0,1,432,270H548a11.79,11.79,0,0,1,12,11.57v36.86A11.83,11.83,0,0,1,548,330Z"/><path class="cls-2" d="M457.2,302.91v-8.28h2l.23,1.75v6.53Zm5.08,0V298a1.83,1.83,0,0,0-.32-1.15,1.12,1.12,0,0,0-.92-.41c-1.1,0-1.65.77-1.65,2.3l-.5-2.65h.71a2,2,0,0,1,.59-1.25,2.16,2.16,0,0,1,1.43-.41,2.76,2.76,0,0,1,2.11.8,3.19,3.19,0,0,1,.74,2.25v5.39Z"/><path class="cls-2" d="M470.56,303.07a3.69,3.69,0,0,1-2.88-1.13,5.45,5.45,0,0,1,0-6.35,4.25,4.25,0,0,1,5.75,0,5.45,5.45,0,0,1,0,6.35A3.68,3.68,0,0,1,470.56,303.07Zm0-2a1.41,1.41,0,0,0,1.22-.6,2.83,2.83,0,0,0,.43-1.69,2.87,2.87,0,0,0-.43-1.7,1.56,1.56,0,0,0-2.44,0,2.87,2.87,0,0,0-.44,1.7,2.83,2.83,0,0,0,.44,1.69A1.41,1.41,0,0,0,470.56,301.06Z"/><path class="cls-2" d="M479.43,303.07a3,3,0,0,1-2.49-1.11,6.19,6.19,0,0,1,0-6.36,3,3,0,0,1,2.5-1.13,2.18,2.18,0,0,1,1.43.41,2,2,0,0,1,.64,1.25h.71l-.5,2.65a2.94,2.94,0,0,0-.42-1.76,1.48,1.48,0,0,0-1.26-.56,1.55,1.55,0,0,0-1.29.61,2.81,2.81,0,0,0-.45,1.71,2.85,2.85,0,0,0,.44,1.72,1.55,1.55,0,0,0,1.3.57,1.46,1.46,0,0,0,1.31-.54,3.19,3.19,0,0,0,.37-1.75l.58,2.63h-.76a1.81,1.81,0,0,1-.67,1.24A2.28,2.28,0,0,1,479.43,303.07ZM482,303l-.32-1.64V291.19h2.2v11.72Z"/><path class="cls-2" d="M490.68,303.07a4.88,4.88,0,0,1-3.44-1.12,4.12,4.12,0,0,1-1.22-3.2,4.53,4.53,0,0,1,1-3.15,4.37,4.37,0,0,1,5.76-.09,4.2,4.2,0,0,1,1,3c0,.37,0,.73-.05,1.07h-6.31v-1.47h4.2a1.74,1.74,0,0,0-.44-1.28,1.66,1.66,0,0,0-1.24-.45,1.63,1.63,0,0,0-1.33.59,2.65,2.65,0,0,0-.47,1.68,2.23,2.23,0,0,0,.7,1.78,3,3,0,0,0,2,.61A11.07,11.07,0,0,0,492,301c.37,0,.76-.09,1.15-.16l.21,2q-.83.13-1.5.18C491.43,303.05,491,303.07,490.68,303.07Z"/><path class="cls-2" d="M499.72,303.07a1.42,1.42,0,0,1-1-.42,1.34,1.34,0,0,1-.43-1,1.32,1.32,0,0,1,.43-1,1.42,1.42,0,0,1,1-.42,1.46,1.46,0,0,1,1,.42,1.35,1.35,0,0,1,.43,1,1.38,1.38,0,0,1-.43,1A1.46,1.46,0,0,1,499.72,303.07Z"/><path class="cls-2" d="M506,306.66l-.08-2,1.62-.1a2.45,2.45,0,0,0,1.63-.58,2,2,0,0,0,.51-1.52v-2.52h2.2v2.27a5.37,5.37,0,0,1-.47,2.4A3.08,3.08,0,0,1,510,306a7.16,7.16,0,0,1-2.56.59Zm.68-10.08v-1.95h3.13v1.95Zm4-3.07a1.41,1.41,0,0,1-1-.37,1.45,1.45,0,0,1,0-2,1.58,1.58,0,0,1,2,0,1.43,1.43,0,0,1,0,2A1.4,1.4,0,0,1,510.68,293.51Zm-1,6.67v-5.55h2.2v5.55Z"/><path class="cls-2" d="M518.5,303.07q-1,0-1.74-.06a10.74,10.74,0,0,1-1.33-.18l.26-2c.68.08,1.25.15,1.72.19s.83.06,1.09.06a6.06,6.06,0,0,0,1.6-.15c.33-.09.49-.25.49-.46a.39.39,0,0,0-.12-.3,1.17,1.17,0,0,0-.39-.19l-2.79-.78a2.59,2.59,0,0,1-1.3-.73,2,2,0,0,1-.43-1.34,2.12,2.12,0,0,1,1.17-2,7.42,7.42,0,0,1,3.54-.66c.36,0,.75,0,1.14,0l1.26.12-.23,2-1.29-.09-.93,0a8.76,8.76,0,0,0-1.84.14c-.38.09-.58.24-.58.45a.38.38,0,0,0,.12.3.85.85,0,0,0,.37.17l2.41.64a3.65,3.65,0,0,1,1.65.84,1.94,1.94,0,0,1,.55,1.44,2.13,2.13,0,0,1-1.08,2A6.68,6.68,0,0,1,518.5,303.07Z"/><path class="cls-1" d="M718,330H602a11.79,11.79,0,0,1-12-11.57V281.57A11.83,11.83,0,0,1,602,270H718a11.79,11.79,0,0,1,12,11.57v36.86A11.83,11.83,0,0,1,718,330Z"/><path class="cls-2" d="M649.88,303.07a11.78,11.78,0,0,1-1.9-.16,8.87,8.87,0,0,1-1.66-.45l.3-2.11a10.92,10.92,0,0,0,1.77.55,7.46,7.46,0,0,0,1.62.2,2.45,2.45,0,0,0,1.33-.3,1,1,0,0,0,.46-.85c0-.49-.32-.87-.95-1.16L649.2,298a5.2,5.2,0,0,1-1.9-1.43,3,3,0,0,1-.67-1.88,2.7,2.7,0,0,1,1-2.25,4.4,4.4,0,0,1,2.82-.8,5.6,5.6,0,0,1,2,.36,5.15,5.15,0,0,1,1.69,1l-1.47,1.63a4.84,4.84,0,0,0-1.13-.79,2.42,2.42,0,0,0-1.09-.28,1.86,1.86,0,0,0-1.11.29,1,1,0,0,0-.4.85,1,1,0,0,0,.28.7,2.48,2.48,0,0,0,.8.59l1.55.77a5.71,5.71,0,0,1,1.88,1.43,2.7,2.7,0,0,1,.66,1.74,2.67,2.67,0,0,1-1.1,2.28A5.32,5.32,0,0,1,649.88,303.07Z"/><path class="cls-2" d="M660,303.07q-4.38,0-4.38-5.63t4.38-5.78q4.38,0,4.38,5.78Q664.38,303.07,660,303.07Zm0-2c1.43,0,2.14-1.22,2.14-3.66s-.71-3.81-2.14-3.81-2.14,1.27-2.14,3.81S658.57,301.1,660,301.1Zm2.81,5.4a4.34,4.34,0,0,1-2.94-.86,3.22,3.22,0,0,1-1-2.57v-.64H661v.65a1.34,1.34,0,0,0,.44,1.1,2.07,2.07,0,0,0,1.33.36h.83l-.16,2Z"/><path class="cls-2" d="M666,302.91V291.82h2.14v11.09Zm0,0V301h7.89v1.9Z"/><path class="cls-1" d="M718,420H602a11.79,11.79,0,0,1-12-11.57V371.57A11.83,11.83,0,0,1,602,360H718a11.79,11.79,0,0,1,12,11.57v36.86A11.83,11.83,0,0,1,718,420Z"/><path class="cls-2" d="M626.87,392.91V381.82h2v11.09Zm3.22-3.88-1-5.24h-.51l.12-2h1.2l.84,5h.06l.23,2.25Zm.47,0,.24-2.25h.1l.84-5h1.19l.13,2h-.51l-1,5.24Zm2.24,3.88V381.82h2v11.09Z"/><path class="cls-2" d="M640.56,393.07a3.69,3.69,0,0,1-2.88-1.13,5.45,5.45,0,0,1,0-6.35,4.25,4.25,0,0,1,5.75,0,5.45,5.45,0,0,1,0,6.35A3.68,3.68,0,0,1,640.56,393.07Zm0-2a1.41,1.41,0,0,0,1.22-.6,2.83,2.83,0,0,0,.43-1.69,2.87,2.87,0,0,0-.43-1.7,1.56,1.56,0,0,0-2.44,0,2.87,2.87,0,0,0-.44,1.7,2.83,2.83,0,0,0,.44,1.69A1.41,1.41,0,0,0,640.56,391.06Z"/><path class="cls-2" d="M646.64,392.91v-8.28h2l.24,1.75v6.53Zm5.08,0V388a1.83,1.83,0,0,0-.32-1.15,1.1,1.1,0,0,0-.91-.41c-1.1,0-1.65.77-1.65,2.3l-.51-2.65h.72a1.94,1.94,0,0,1,.59-1.25,2.13,2.13,0,0,1,1.42-.41,2.76,2.76,0,0,1,2.11.8,3.15,3.15,0,0,1,.75,2.25v5.39Z"/><path class="cls-2" d="M659.15,393.07a3,3,0,0,1-2.48-1.11,6.13,6.13,0,0,1,0-6.36,3,3,0,0,1,2.5-1.13,2.33,2.33,0,0,1,1.48.41,2,2,0,0,1,.66,1.25H662l-.51,2.65A3,3,0,0,0,661,387a1.48,1.48,0,0,0-1.26-.56,1.52,1.52,0,0,0-1.29.61,2.74,2.74,0,0,0-.46,1.71,2.85,2.85,0,0,0,.44,1.72,1.56,1.56,0,0,0,1.31.57,1.46,1.46,0,0,0,1.3-.54,3.19,3.19,0,0,0,.37-1.75l.59,2.63h-.77a1.81,1.81,0,0,1-.67,1.24A2.28,2.28,0,0,1,659.15,393.07Zm-2.54,3.57-.08-1.84,2.76-.08a2.19,2.19,0,0,0,1.64-.6,2.49,2.49,0,0,0,.51-1.69v-6.05l.16-1.75h2v7.55a4.37,4.37,0,0,1-1.08,3.26,5.06,5.06,0,0,1-3.43,1.13Z"/><path class="cls-2" d="M669.72,393.07a3.67,3.67,0,0,1-2.87-1.13,5.41,5.41,0,0,1,0-6.35,4.25,4.25,0,0,1,5.75,0,5.45,5.45,0,0,1,0,6.35A3.69,3.69,0,0,1,669.72,393.07Zm0-2a1.43,1.43,0,0,0,1.23-.6,2.91,2.91,0,0,0,.43-1.69,2.94,2.94,0,0,0-.43-1.7,1.57,1.57,0,0,0-2.45,0,2.87,2.87,0,0,0-.43,1.7,2.83,2.83,0,0,0,.43,1.69A1.42,1.42,0,0,0,669.72,391.06Z"/><path class="cls-2" d="M675.58,392.91V381.82h2.14v11.09Zm2,0v-2h.89a3.06,3.06,0,0,0,2.38-.87,3.71,3.71,0,0,0,.78-2.55,4.3,4.3,0,0,0-.78-2.79,2.93,2.93,0,0,0-2.38-.94h-.86l-.2-2h1.06q5.41,0,5.41,5.7,0,5.39-5.41,5.39Z"/><path class="cls-2" d="M685.46,392.91V381.82h2.14v11.09Zm1.48-5.45v-.77h3.19v.77Zm.55-.53v-.83h1.56a1.76,1.76,0,0,0,1.14-.32,1.12,1.12,0,0,0,.39-.93,1,1,0,0,0-.41-.85,2.19,2.19,0,0,0-1.23-.29h-1.42l-.19-1.89H689a4.73,4.73,0,0,1,2.81.71,2.37,2.37,0,0,1,1,2,2.11,2.11,0,0,1-.77,1.74,3.41,3.41,0,0,1-2.18.62Zm0,6V391h2a2.06,2.06,0,0,0,1.36-.4,1.36,1.36,0,0,0,.49-1.11,1.33,1.33,0,0,0-.51-1.11,2.36,2.36,0,0,0-1.45-.39h-1.91l-.19-.82h3.17a3.46,3.46,0,0,1,2.32.7,2.48,2.48,0,0,1,.81,2,2.77,2.77,0,0,1-.94,2.25,4.06,4.06,0,0,1-2.68.8Z"/><path class="cls-1" d="M548,420H432a11.79,11.79,0,0,1-12-11.57V371.57A11.83,11.83,0,0,1,432,360H548a11.79,11.79,0,0,1,12,11.57v36.86A11.83,11.83,0,0,1,548,420Z"/><path class="cls-2" d="M476.57,394.91V383.82h2.14v11.09Zm1.95-3.18v-1.9h1.58a2.28,2.28,0,0,0,1.64-.56,2.08,2.08,0,0,0,.58-1.57,1.84,1.84,0,0,0-.58-1.47,2.41,2.41,0,0,0-1.64-.52h-1.55v-1.89h1.55a5.09,5.09,0,0,1,3.35,1,3.41,3.41,0,0,1,1.18,2.77,4,4,0,0,1-1.18,3.07,4.76,4.76,0,0,1-3.35,1.09Z"/><path class="cls-2" d="M486.13,394.91V383.82h2.15v11.09Zm.35-4.57v-1.91h7.08v1.91Zm5.25,4.57V383.82h2.14v11.09Z"/><path class="cls-2" d="M496,394.91V383.82h2.14v11.09Zm1.94-3.18v-1.9h1.58a2.26,2.26,0,0,0,1.64-.56,2.08,2.08,0,0,0,.58-1.57,1.84,1.84,0,0,0-.58-1.47,2.39,2.39,0,0,0-1.64-.52H498v-1.89h1.54a5.07,5.07,0,0,1,3.35,1,3.38,3.38,0,0,1,1.18,2.77,4,4,0,0,1-1.18,3.07,4.74,4.74,0,0,1-3.35,1.09Z"/><path class="cls-1" d="M378,240H262a11.79,11.79,0,0,1-12-11.57V191.57A11.83,11.83,0,0,1,262,180H378a11.79,11.79,0,0,1,12,11.57v36.86A11.83,11.83,0,0,1,378,240Z"/><path class="cls-2" d="M276.66,210.09v-1.81h8.22v1.81Zm2.61,4.82v-7.58c0-2.86,1.44-4.29,4.3-4.29a11.86,11.86,0,0,1,1.92.15l-.21,2c-.36,0-.68-.07-1-.08l-.79,0c-1.38,0-2.07.74-2.07,2.21v7.66Z"/><path class="cls-2" d="M286.48,214.91V213.1h6v1.81Zm.33-6.47v-1.81h3.24l.16,1.81Zm1.49,6.47v-8.28h1.86l.33,2.37v5.91Zm2.19-3.56L290,208.5h.74a2,2,0,0,1,2.2-2,2.19,2.19,0,0,1,1.87.87,4.07,4.07,0,0,1,.65,2.5h-2.18a1.61,1.61,0,0,0-.28-1.05,1.13,1.13,0,0,0-.9-.33,1.29,1.29,0,0,0-1.2.75A4.75,4.75,0,0,0,290.49,211.35Z"/><path class="cls-2" d="M300.56,215.07a3.69,3.69,0,0,1-2.88-1.13,5.45,5.45,0,0,1,0-6.35,4.25,4.25,0,0,1,5.75,0,5.45,5.45,0,0,1,0,6.35A3.68,3.68,0,0,1,300.56,215.07Zm0-2a1.41,1.41,0,0,0,1.22-.6,2.83,2.83,0,0,0,.43-1.69,2.87,2.87,0,0,0-.43-1.7,1.56,1.56,0,0,0-2.44,0,2.87,2.87,0,0,0-.44,1.7,2.83,2.83,0,0,0,.44,1.69A1.41,1.41,0,0,0,300.56,213.06Z"/><path class="cls-2" d="M306.64,214.91v-8.28h2l.24,1.75v6.53Zm5.08,0V210a1.83,1.83,0,0,0-.32-1.15,1.1,1.1,0,0,0-.91-.41c-1.1,0-1.65.77-1.65,2.3l-.51-2.65h.72a2,2,0,0,1,.59-1.25,2.13,2.13,0,0,1,1.42-.41,2.76,2.76,0,0,1,2.11.8,3.15,3.15,0,0,1,.75,2.25v5.39Z"/><path class="cls-2" d="M315.57,208.57v-1.94h8.05v1.94Zm2.06,2.3v-6.74h2.18v6.74Zm4.19,4.2a4.82,4.82,0,0,1-3.2-.86,3.47,3.47,0,0,1-1-2.75v-1.08h2.18v.87a1.72,1.72,0,0,0,.51,1.38,2.54,2.54,0,0,0,1.66.43c.25,0,.52,0,.8,0l1-.12.2,2c-.36.06-.71.11-1.05.14S322.21,215.07,321.82,215.07Z"/><path class="cls-2" d="M325.54,210.35v-2h8.37v2Z"/><path class="cls-2" d="M340.13,215.07a4.89,4.89,0,0,1-3.45-1.12,4.12,4.12,0,0,1-1.21-3.2,4.48,4.48,0,0,1,1-3.15,4.37,4.37,0,0,1,5.76-.09,4.2,4.2,0,0,1,1,3c0,.37,0,.73-.05,1.07h-6.3v-1.47h4.2a1.71,1.71,0,0,0-.45-1.28,1.63,1.63,0,0,0-1.23-.45,1.61,1.61,0,0,0-1.33.59,2.59,2.59,0,0,0-.48,1.68,2.26,2.26,0,0,0,.7,1.78,3,3,0,0,0,2,.61,10.93,10.93,0,0,0,1.15-.06c.38,0,.76-.09,1.16-.16l.21,2c-.55.09-1,.15-1.51.18S340.48,215.07,340.13,215.07Z"/><path class="cls-2" d="M345.53,214.91v-8.28h2l.23,1.75v6.53Zm5.08,0V210a1.83,1.83,0,0,0-.32-1.15,1.1,1.1,0,0,0-.91-.41c-1.1,0-1.66.77-1.66,2.3l-.5-2.65h.72a1.94,1.94,0,0,1,.59-1.25,2.13,2.13,0,0,1,1.42-.41,2.76,2.76,0,0,1,2.11.8,3.15,3.15,0,0,1,.74,2.25v5.39Z"/><path class="cls-2" d="M358,215.07a3,3,0,0,1-2.48-1.11,6.13,6.13,0,0,1,0-6.36,3,3,0,0,1,2.49-1.13,2.23,2.23,0,0,1,1.44.41,2.07,2.07,0,0,1,.63,1.25h.71l-.5,2.65a2.94,2.94,0,0,0-.42-1.76,1.46,1.46,0,0,0-1.26-.56,1.52,1.52,0,0,0-1.28.61,2.74,2.74,0,0,0-.46,1.71,2.78,2.78,0,0,0,.45,1.72,1.52,1.52,0,0,0,1.29.57,1.46,1.46,0,0,0,1.31-.54,3.19,3.19,0,0,0,.37-1.75l.59,2.63h-.77a1.81,1.81,0,0,1-.67,1.24A2.28,2.28,0,0,1,358,215.07Zm2.61-.08-.32-1.64V203.19h2.2v11.72Z"/><path class="cls-1" d="M378,330H262a11.79,11.79,0,0,1-12-11.57V281.57A11.83,11.83,0,0,1,262,270H378a11.79,11.79,0,0,1,12,11.57v36.86A11.83,11.83,0,0,1,378,330Z"/><path class="cls-2" d="M282.11,304.91V293.82h2.14v11.09Zm.34-4.57v-1.91h7.09v1.91Zm5.25,4.57V293.82h2.14v11.09Z"/><path class="cls-2" d="M291.35,295.71v-1.89h8.7v1.89Zm3.28,9.2V293.82h2.14v11.09Z"/><path class="cls-2" d="M301.46,304.91V293.82h2v11.09Zm3.21-3.88-1-5.24h-.51l.13-2h1.19l.84,5h.07l.22,2.25Zm.47,0,.24-2.25h.1l.84-5h1.2l.12,2h-.51l-1,5.24Zm2.25,3.88V293.82h2v11.09Z"/><path class="cls-2" d="M311.44,304.91V293.82h2.14v11.09Zm0,0V303h7.89v1.9Z"/><path class="cls-2" d="M320.65,306.39l6.28-14.06h2.23l-6.28,14.06Z"/><path class="cls-2" d="M335.78,305.07c-3.66,0-5.5-1.91-5.5-5.72a5.9,5.9,0,0,1,1.39-4.2,5.09,5.09,0,0,1,3.92-1.49,5.37,5.37,0,0,1,2,.36,2.82,2.82,0,0,1,1.33,1l-1.2,1.51a2.37,2.37,0,0,0-.93-.67,3,3,0,0,0-1.21-.24,2.86,2.86,0,0,0-2.24.95,3.92,3.92,0,0,0-.83,2.69q0,3.83,3.52,3.83a6.12,6.12,0,0,0,2.32-.47l.37,1.91A8.45,8.45,0,0,1,335.78,305.07Z"/><path class="cls-2" d="M343.91,305.07a11.78,11.78,0,0,1-1.9-.16,8.87,8.87,0,0,1-1.66-.45l.29-2.11a11.57,11.57,0,0,0,1.77.55,7.62,7.62,0,0,0,1.63.2,2.45,2.45,0,0,0,1.33-.3,1,1,0,0,0,.46-.85c0-.49-.32-.87-.95-1.16l-1.65-.77a5.2,5.2,0,0,1-1.9-1.43,3,3,0,0,1-.67-1.88,2.7,2.7,0,0,1,1-2.25,4.4,4.4,0,0,1,2.82-.8,5.64,5.64,0,0,1,2,.36,5.25,5.25,0,0,1,1.69,1l-1.47,1.63a4.84,4.84,0,0,0-1.13-.79,2.43,2.43,0,0,0-1.1-.28,1.84,1.84,0,0,0-1.1.29,1,1,0,0,0-.4.85,1,1,0,0,0,.28.7,2.54,2.54,0,0,0,.79.59l1.56.77a5.82,5.82,0,0,1,1.88,1.43,2.7,2.7,0,0,1,.66,1.74,2.66,2.66,0,0,1-1.11,2.28A5.28,5.28,0,0,1,343.91,305.07Z"/><path class="cls-2" d="M353.63,305.07a11.78,11.78,0,0,1-1.9-.16,8.87,8.87,0,0,1-1.66-.45l.3-2.11a10.92,10.92,0,0,0,1.77.55,7.46,7.46,0,0,0,1.62.2,2.45,2.45,0,0,0,1.33-.3,1,1,0,0,0,.46-.85c0-.49-.31-.87-.95-1.16L353,300a5.2,5.2,0,0,1-1.9-1.43,3,3,0,0,1-.67-1.88,2.7,2.7,0,0,1,1-2.25,4.4,4.4,0,0,1,2.82-.8,5.6,5.6,0,0,1,2,.36,5.15,5.15,0,0,1,1.69,1l-1.47,1.63a4.84,4.84,0,0,0-1.13-.79,2.42,2.42,0,0,0-1.09-.28,1.86,1.86,0,0,0-1.11.29,1,1,0,0,0-.4.85,1,1,0,0,0,.28.7,2.6,2.6,0,0,0,.8.59l1.55.77a5.71,5.71,0,0,1,1.88,1.43,2.7,2.7,0,0,1,.66,1.74,2.67,2.67,0,0,1-1.1,2.28A5.32,5.32,0,0,1,353.63,305.07Z"/><path class="cls-1" d="M378,420H262a11.79,11.79,0,0,1-12-11.57V371.57A11.83,11.83,0,0,1,262,360H378a11.79,11.79,0,0,1,12,11.57v36.86A11.83,11.83,0,0,1,378,420Z"/><path class="cls-2" d="M281.62,394.91V393.1h6v1.81Zm.33-6.47v-1.81h3.24l.16,1.81Zm1.49,6.47v-8.28h1.86l.33,2.37v5.91Zm2.19-3.56-.51-2.85h.74a2,2,0,0,1,2.19-2,2.2,2.2,0,0,1,1.88.87,4.07,4.07,0,0,1,.65,2.5h-2.19a1.61,1.61,0,0,0-.27-1,1.13,1.13,0,0,0-.9-.33,1.29,1.29,0,0,0-1.2.75A4.75,4.75,0,0,0,285.63,391.35Z"/><path class="cls-2" d="M296.38,395.07a4.89,4.89,0,0,1-3.45-1.12,4.12,4.12,0,0,1-1.21-3.2,4.48,4.48,0,0,1,1-3.15,4.37,4.37,0,0,1,5.76-.09,4.2,4.2,0,0,1,1,3,9.25,9.25,0,0,1-.05,1.07h-6.3v-1.47h4.2a1.71,1.71,0,0,0-.45-1.28,1.63,1.63,0,0,0-1.23-.45,1.61,1.61,0,0,0-1.33.59,2.59,2.59,0,0,0-.48,1.68,2.26,2.26,0,0,0,.7,1.78,3,3,0,0,0,2,.61,10.93,10.93,0,0,0,1.15-.06c.38,0,.76-.09,1.16-.16l.21,2c-.55.09-1,.15-1.51.18S296.73,395.07,296.38,395.07Z"/><path class="cls-2" d="M304.09,395.07a3.19,3.19,0,0,1-2.13-.65,2.29,2.29,0,0,1-.76-1.85,2.51,2.51,0,0,1,1-2.13,4.72,4.72,0,0,1,2.83-.74,8.64,8.64,0,0,1,1.22.07,8,8,0,0,1,1,.22l-.36,1.65a4.89,4.89,0,0,0-.93-.14l-.86,0c-1.14,0-1.71.31-1.71.94a.76.76,0,0,0,.31.64,1.53,1.53,0,0,0,.9.23,2.49,2.49,0,0,0,1.19-.26,1.78,1.78,0,0,0,.72-.66,1.56,1.56,0,0,0,.24-.82V391l.31,2.12h-.69l.28-.25a2.32,2.32,0,0,1-.34,1.2,1.93,1.93,0,0,1-.89.72A3.48,3.48,0,0,1,304.09,395.07ZM307,395l-.19-2.45,0-1.08v-1.62a1,1,0,0,0-.59-1,4,4,0,0,0-1.74-.34l-2.2-.06.16-1.92,1.87,0a6,6,0,0,1,3.47.89,2.92,2.92,0,0,1,1.13,2.5V393l1.2.17v1.72Z"/><path class="cls-2" d="M316.14,395.07a5.32,5.32,0,0,1-3.62-1.12,4,4,0,0,1-1.28-3.2,4.16,4.16,0,0,1,1.17-3.15,4.61,4.61,0,0,1,3.33-1.13,4.89,4.89,0,0,1,2.28.5,3,3,0,0,1,1.35,1.42l-1.59,1.22a2.58,2.58,0,0,0-.9-.84,2.6,2.6,0,0,0-1.21-.29,2,2,0,0,0-2.18,2.2,2.15,2.15,0,0,0,.74,1.77,3.22,3.22,0,0,0,2.11.61,11.12,11.12,0,0,0,1.16-.06c.39,0,.76-.08,1.13-.14l.23,2a8.61,8.61,0,0,1-1.35.19C317,395.05,316.59,395.07,316.14,395.07Z"/><path class="cls-2" d="M320.43,388.57v-1.94h8.05v1.94Zm2.06,2.3v-6.74h2.19v6.74Zm4.19,4.2a4.84,4.84,0,0,1-3.2-.86,3.47,3.47,0,0,1-1-2.75v-1.08h2.19v.87a1.71,1.71,0,0,0,.5,1.38,2.55,2.55,0,0,0,1.67.43c.25,0,.51,0,.79,0l1-.12.2,2c-.36.06-.71.11-1,.14S327.07,395.07,326.68,395.07Z"/><path class="cls-2" d="M334.58,395.07a1.43,1.43,0,0,1-1-.42,1.34,1.34,0,0,1-.43-1,1.32,1.32,0,0,1,.43-1,1.43,1.43,0,0,1,1-.42,1.46,1.46,0,0,1,1.05.42,1.32,1.32,0,0,1,.43,1,1.34,1.34,0,0,1-.43,1A1.46,1.46,0,0,1,334.58,395.07Z"/><path class="cls-2" d="M340.9,398.66l-.08-2,1.62-.1a2.45,2.45,0,0,0,1.63-.58,2,2,0,0,0,.51-1.52v-2.52h2.2v2.27a5.37,5.37,0,0,1-.47,2.4,3,3,0,0,1-1.47,1.4,7.16,7.16,0,0,1-2.56.59Zm.68-10.08v-1.95h3.13v1.95Zm4-3.07a1.37,1.37,0,0,1-1-.37,1.43,1.43,0,0,1,0-2,1.37,1.37,0,0,1,1-.37,1.4,1.4,0,0,1,1,.37,1.43,1.43,0,0,1,0,2A1.4,1.4,0,0,1,345.54,385.51Zm-1,6.67v-5.55h2.2v5.55Z"/><path class="cls-2" d="M353.36,395.07c-.65,0-1.23,0-1.73-.06a10.92,10.92,0,0,1-1.34-.18l.26-2c.68.08,1.26.15,1.72.19s.83.06,1.09.06a6.06,6.06,0,0,0,1.6-.15c.33-.09.5-.25.5-.46a.4.4,0,0,0-.13-.3,1.17,1.17,0,0,0-.39-.19l-2.79-.78a2.6,2.6,0,0,1-1.29-.73,2,2,0,0,1-.44-1.34,2.12,2.12,0,0,1,1.17-2,7.42,7.42,0,0,1,3.54-.66c.37,0,.75,0,1.15,0l1.26.12-.24,2L356,388.5l-.93,0a8.76,8.76,0,0,0-1.84.14q-.57.13-.57.45a.38.38,0,0,0,.12.3.81.81,0,0,0,.36.17l2.41.64a3.74,3.74,0,0,1,1.66.84,2,2,0,0,1,.54,1.44,2.13,2.13,0,0,1-1.08,2A6.68,6.68,0,0,1,353.36,395.07Z"/><path class="cls-1" d="M718,240H602a11.79,11.79,0,0,1-12-11.57V191.57A11.83,11.83,0,0,1,602,180H718a11.79,11.79,0,0,1,12,11.57v36.86A11.83,11.83,0,0,1,718,240Z"/><path class="cls-2" d="M625.12,215a3,3,0,0,1-2.48-1.11,6.13,6.13,0,0,1,0-6.36,3,3,0,0,1,2.5-1.13,2.2,2.2,0,0,1,1.43.41,2.08,2.08,0,0,1,.64,1.25h.71l-.5,2.65A2.94,2.94,0,0,0,627,209a1.48,1.48,0,0,0-1.26-.55,1.52,1.52,0,0,0-1.29.6,3.53,3.53,0,0,0,0,3.43,1.54,1.54,0,0,0,1.3.57,1.47,1.47,0,0,0,1.31-.54,3.28,3.28,0,0,0,.37-1.75l.58,2.63h-.76a1.82,1.82,0,0,1-.68,1.24A2.28,2.28,0,0,1,625.12,215Zm2.61-.08-.31-1.64V203.14h2.19v11.72Z"/><path class="cls-2" d="M634.37,215a3.17,3.17,0,0,1-2.13-.65,2.29,2.29,0,0,1-.77-1.85,2.52,2.52,0,0,1,1-2.13,4.7,4.7,0,0,1,2.83-.74,8.64,8.64,0,0,1,1.22.07,8,8,0,0,1,1,.22l-.36,1.65a4.89,4.89,0,0,0-.93-.14l-.87,0c-1.13,0-1.7.31-1.7.94a.73.73,0,0,0,.31.64,1.51,1.51,0,0,0,.9.23,2.52,2.52,0,0,0,1.19-.26,1.78,1.78,0,0,0,.72-.66,1.56,1.56,0,0,0,.24-.82V211l.31,2.12h-.69l.28-.25a2.32,2.32,0,0,1-.34,1.2,1.93,1.93,0,0,1-.89.72A3.48,3.48,0,0,1,634.37,215Zm2.91-.08-.19-2.45,0-1.08v-1.62a1,1,0,0,0-.59-1,4,4,0,0,0-1.75-.34l-2.19-.06.16-1.92,1.87,0a5.89,5.89,0,0,1,3.47.89,2.92,2.92,0,0,1,1.13,2.5V213l1.19.17v1.72Z"/><path class="cls-2" d="M641,208.52v-1.94h8v1.94Zm2,2.3v-6.74h2.19v6.74Zm4.2,4.2a4.87,4.87,0,0,1-3.21-.86,3.47,3.47,0,0,1-1-2.75v-1.08h2.19v.87a1.72,1.72,0,0,0,.51,1.38,2.52,2.52,0,0,0,1.66.43c.25,0,.52,0,.8,0l1-.12.19,2c-.35.06-.7.11-1,.14S647.62,215,647.24,215Z"/><path class="cls-2" d="M653.81,215a3.21,3.21,0,0,1-2.13-.65,2.29,2.29,0,0,1-.76-1.85,2.5,2.5,0,0,1,1-2.13,4.66,4.66,0,0,1,2.82-.74,8.64,8.64,0,0,1,1.22.07,8,8,0,0,1,1,.22l-.35,1.65a5.1,5.1,0,0,0-.94-.14l-.86,0c-1.14,0-1.7.31-1.7.94a.73.73,0,0,0,.31.64,1.48,1.48,0,0,0,.89.23,2.47,2.47,0,0,0,1.19-.26,1.78,1.78,0,0,0,.72-.66,1.56,1.56,0,0,0,.24-.82V211l.31,2.12h-.69l.28-.25a2.23,2.23,0,0,1-.34,1.2,1.9,1.9,0,0,1-.88.72A3.57,3.57,0,0,1,653.81,215Zm2.91-.08-.19-2.45,0-1.08v-1.62a1,1,0,0,0-.59-1,4,4,0,0,0-1.74-.34l-2.2-.06.16-1.92,1.88,0a5.85,5.85,0,0,1,3.46.89,2.93,2.93,0,0,1,1.14,2.5V213l1.19.17v1.72Z"/><path class="cls-2" d="M661.18,214.86V203.14h2.2v11.58Zm2.44.16c-.41,0-.81,0-1.21-.05s-.81-.06-1.23-.11l.81-2.1a2.6,2.6,0,0,0,.94.23l1,0a2.82,2.82,0,0,0,2.1-.74,2.88,2.88,0,0,0,.74-2.11,1.91,1.91,0,0,0-.41-1.3,1.48,1.48,0,0,0-1.16-.45c-1.24,0-1.85.59-1.85,1.78l-.5-2.12h.73a1.78,1.78,0,0,1,2-1.66,3.2,3.2,0,0,1,2.5,1,3.93,3.93,0,0,1,.89,2.77,4.57,4.57,0,0,1-1.41,3.58A5.83,5.83,0,0,1,663.62,215Z"/><path class="cls-2" d="M673.26,215a3.17,3.17,0,0,1-2.13-.65,2.29,2.29,0,0,1-.77-1.85,2.52,2.52,0,0,1,1-2.13,4.7,4.7,0,0,1,2.83-.74,8.73,8.73,0,0,1,1.22.07,8,8,0,0,1,1,.22l-.36,1.65a4.89,4.89,0,0,0-.93-.14l-.87,0c-1.13,0-1.7.31-1.7.94a.73.73,0,0,0,.31.64,1.49,1.49,0,0,0,.9.23A2.52,2.52,0,0,0,675,213a1.78,1.78,0,0,0,.72-.66,1.56,1.56,0,0,0,.24-.82V211l.3,2.12h-.69l.29-.25a2.32,2.32,0,0,1-.34,1.2,1.93,1.93,0,0,1-.89.72A3.48,3.48,0,0,1,673.26,215Zm2.9-.08-.18-2.45,0-1.08v-1.62a1,1,0,0,0-.59-1,4.06,4.06,0,0,0-1.75-.34l-2.19-.06.16-1.92,1.87,0a5.89,5.89,0,0,1,3.47.89,3,3,0,0,1,1.13,2.5V213l1.19.17v1.72Z"/><path class="cls-2" d="M683.64,215q-1,0-1.74-.06a11,11,0,0,1-1.33-.18l.26-2,1.72.19c.46,0,.83.06,1.09.06a6.06,6.06,0,0,0,1.6-.15c.33-.09.49-.25.49-.46a.39.39,0,0,0-.12-.3,1,1,0,0,0-.39-.18l-2.79-.79a2.59,2.59,0,0,1-1.3-.73,2,2,0,0,1-.43-1.34,2.12,2.12,0,0,1,1.17-2,7.36,7.36,0,0,1,3.54-.66c.37,0,.75,0,1.14,0l1.26.12-.23,2-1.29-.09-.93,0a8.76,8.76,0,0,0-1.84.14c-.39.09-.57.24-.57.45a.37.37,0,0,0,.11.3.85.85,0,0,0,.37.17l2.41.64a3.65,3.65,0,0,1,1.65.84,1.94,1.94,0,0,1,.55,1.44,2.13,2.13,0,0,1-1.08,2A6.68,6.68,0,0,1,683.64,215Z"/><path class="cls-2" d="M694.71,215a4.86,4.86,0,0,1-3.44-1.12,4.12,4.12,0,0,1-1.22-3.2,4.48,4.48,0,0,1,1-3.15,4.37,4.37,0,0,1,5.76-.09,4.18,4.18,0,0,1,1,3c0,.37,0,.73,0,1.07h-6.31v-1.47h4.2a1.74,1.74,0,0,0-.44-1.28,1.67,1.67,0,0,0-1.24-.45,1.63,1.63,0,0,0-1.33.59,2.59,2.59,0,0,0-.47,1.68,2.23,2.23,0,0,0,.7,1.78,3,3,0,0,0,2,.61,10.79,10.79,0,0,0,1.15-.06c.38,0,.77-.09,1.16-.16l.21,2q-.82.13-1.5.18C695.46,215,695.06,215,694.71,215Z"/><path class="cls-1" d="M548,150H432a11.79,11.79,0,0,1-12-11.57V101.57A11.83,11.83,0,0,1,432,90H548a11.79,11.79,0,0,1,12,11.57v36.86A11.83,11.83,0,0,1,548,150Z"/><path class="cls-2" d="M473.41,114.91l-.56-8.28H475l.31,6.31h.14l1-6.31H478l-.72,2h-.11l-.87,6.24Zm4.7,0-.86-6.24h-.13l-.71-2H478l1,6.31h.15l.52-6.31h2.08l-.81,8.28Z"/><path class="cls-2" d="M487.68,115.07a4.88,4.88,0,0,1-3.44-1.12,4.12,4.12,0,0,1-1.22-3.2,4.53,4.53,0,0,1,1-3.15,4.37,4.37,0,0,1,5.76-.09,4.2,4.2,0,0,1,1,3c0,.37,0,.73-.05,1.07h-6.31v-1.47h4.2a1.74,1.74,0,0,0-.44-1.28,1.66,1.66,0,0,0-1.24-.45,1.63,1.63,0,0,0-1.33.59,2.65,2.65,0,0,0-.47,1.68,2.23,2.23,0,0,0,.7,1.78,3,3,0,0,0,2,.61A11.07,11.07,0,0,0,489,113c.37,0,.76-.09,1.15-.16l.21,2q-.83.14-1.5.18C488.43,115.05,488,115.07,487.68,115.07Z"/><path class="cls-2" d="M493,114.91V103.19h2.2v11.58Zm2.44.16c-.41,0-.81,0-1.21,0s-.81-.06-1.23-.11l.81-2.1a2.6,2.6,0,0,0,.94.23l1,0a2.83,2.83,0,0,0,2.1-.74,2.88,2.88,0,0,0,.74-2.11,1.91,1.91,0,0,0-.41-1.3,1.49,1.49,0,0,0-1.16-.46,1.61,1.61,0,0,0-1.85,1.79l-.5-2.12h.73a1.79,1.79,0,0,1,2-1.66,3.24,3.24,0,0,1,2.51,1,4,4,0,0,1,.88,2.77,4.57,4.57,0,0,1-1.41,3.58A5.83,5.83,0,0,1,495.48,115.07Z"/><path class="cls-2" d="M442.4,135.07a3,3,0,0,1-2.48-1.11,6.13,6.13,0,0,1,0-6.36,3,3,0,0,1,2.5-1.13,2.21,2.21,0,0,1,1.43.41,2.07,2.07,0,0,1,.63,1.25h.72l-.51,2.65a3,3,0,0,0-.41-1.76,1.48,1.48,0,0,0-1.26-.56,1.52,1.52,0,0,0-1.29.61,2.74,2.74,0,0,0-.46,1.71,2.85,2.85,0,0,0,.44,1.72,1.56,1.56,0,0,0,1.31.57,1.46,1.46,0,0,0,1.3-.54,3.19,3.19,0,0,0,.37-1.75l.59,2.63h-.77a1.81,1.81,0,0,1-.67,1.24A2.28,2.28,0,0,1,442.4,135.07ZM445,135l-.32-1.64V123.19h2.2v11.72Z"/><path class="cls-2" d="M453.65,135.07a4.88,4.88,0,0,1-3.44-1.12,4.12,4.12,0,0,1-1.22-3.2,4.48,4.48,0,0,1,1-3.15,4.35,4.35,0,0,1,5.75-.09,4.2,4.2,0,0,1,1,3c0,.37,0,.73-.05,1.07h-6.3v-1.47h4.19a1.7,1.7,0,0,0-.44-1.28,1.86,1.86,0,0,0-2.57.14,2.65,2.65,0,0,0-.47,1.68,2.23,2.23,0,0,0,.7,1.78,3,3,0,0,0,2,.61A10.93,10.93,0,0,0,455,133c.38,0,.76-.09,1.16-.16l.21,2c-.55.09-1.06.15-1.51.18S454,135.07,453.65,135.07Z"/><path class="cls-2" d="M461.29,134.91l-3-8.28h2.24l2,6.42h.15l2-6.42H467l-2.94,8.28Z"/><path class="cls-2" d="M473.1,135.07a4.89,4.89,0,0,1-3.45-1.12,4.12,4.12,0,0,1-1.21-3.2,4.48,4.48,0,0,1,1-3.15,4.37,4.37,0,0,1,5.76-.09,4.2,4.2,0,0,1,1,3,9.25,9.25,0,0,1-.05,1.07h-6.3v-1.47h4.2a1.71,1.71,0,0,0-.45-1.28,1.63,1.63,0,0,0-1.23-.45,1.61,1.61,0,0,0-1.33.59,2.59,2.59,0,0,0-.48,1.68,2.26,2.26,0,0,0,.7,1.78,3,3,0,0,0,2,.61,10.93,10.93,0,0,0,1.15-.06c.38,0,.77-.09,1.16-.16l.21,2c-.55.09-1.05.15-1.51.18S473.45,135.07,473.1,135.07Z"/><path class="cls-2" d="M477.93,125.14v-2h2.58v2Zm5.49,9.93a2.9,2.9,0,0,1-2.34-.86,4.27,4.27,0,0,1-.71-2.75v-8.27h2.18v8.19a2.49,2.49,0,0,0,.12.84.83.83,0,0,0,.43.49,2.43,2.43,0,0,0,1,.15,7.5,7.5,0,0,0,1.8-.29l.25,2.17a10.7,10.7,0,0,1-2.7.33Z"/><path class="cls-2" d="M491.86,135.07a3.69,3.69,0,0,1-2.88-1.13,5.45,5.45,0,0,1,0-6.35,4.26,4.26,0,0,1,5.76,0,5.45,5.45,0,0,1,0,6.35A3.69,3.69,0,0,1,491.86,135.07Zm0-2a1.4,1.4,0,0,0,1.22-.6,2.83,2.83,0,0,0,.43-1.69,2.87,2.87,0,0,0-.43-1.7,1.42,1.42,0,0,0-1.22-.59,1.44,1.44,0,0,0-1.22.59,2.87,2.87,0,0,0-.43,1.7,2.83,2.83,0,0,0,.43,1.69A1.42,1.42,0,0,0,491.86,133.06Z"/><path class="cls-2" d="M498,138.5V126.63h2l.16,1.75V138.5Zm4.48-3.43a2.28,2.28,0,0,1-1.44-.42,1.85,1.85,0,0,1-.67-1.24h-.76l.58-2.63a3.28,3.28,0,0,0,.37,1.75,1.49,1.49,0,0,0,1.31.54,1.55,1.55,0,0,0,1.3-.57,2.85,2.85,0,0,0,.44-1.72,2.81,2.81,0,0,0-.45-1.71,1.54,1.54,0,0,0-1.29-.61,1.48,1.48,0,0,0-1.26.56,2.94,2.94,0,0,0-.42,1.76l-.5-2.65h.63a2,2,0,0,1,.66-1.25,2.34,2.34,0,0,1,1.49-.41,3,3,0,0,1,2.5,1.13,6.19,6.19,0,0,1,0,6.36A3,3,0,0,1,502.43,135.07Z"/><path class="cls-2" d="M507.21,134.91v-8.28h2l.2,1.75v6.53Zm3.3,0v-5.77c0-.46-.17-.7-.52-.7s-.61.31-.61.93l-.5-1.71h.61a1.22,1.22,0,0,1,1.3-1.19,1.2,1.2,0,0,1,1,.45,2.11,2.11,0,0,1,.36,1.35v6.64Zm2.73,0V129.3c0-.57-.17-.86-.52-.86s-.58.31-.58.93l-.58-1.71h.73a1.24,1.24,0,0,1,.45-.87,1.49,1.49,0,0,1,1-.32,1.63,1.63,0,0,1,1.27.46,2.32,2.32,0,0,1,.4,1.5v6.48Z"/><path class="cls-2" d="M521.71,135.07a4.85,4.85,0,0,1-3.44-1.12,4.12,4.12,0,0,1-1.22-3.2,4.48,4.48,0,0,1,1-3.15,4.37,4.37,0,0,1,5.76-.09,4.2,4.2,0,0,1,1,3,9.25,9.25,0,0,1-.05,1.07h-6.3v-1.47h4.2a1.74,1.74,0,0,0-.44-1.28,1.67,1.67,0,0,0-1.24-.45,1.61,1.61,0,0,0-1.33.59,2.59,2.59,0,0,0-.47,1.68,2.23,2.23,0,0,0,.7,1.78,3,3,0,0,0,2,.61,10.79,10.79,0,0,0,1.15-.06c.38,0,.77-.09,1.16-.16l.21,2q-.82.14-1.5.18C522.46,135.05,522.06,135.07,521.71,135.07Z"/><path class="cls-2" d="M527.11,134.91v-8.28h2l.24,1.75v6.53Zm5.08,0V130a1.77,1.77,0,0,0-.32-1.15,1.08,1.08,0,0,0-.91-.41c-1.1,0-1.65.77-1.65,2.3l-.5-2.65h.71a2,2,0,0,1,.59-1.25,2.14,2.14,0,0,1,1.43-.41,2.74,2.74,0,0,1,2.1.8,3.15,3.15,0,0,1,.75,2.25v5.39Z"/><path class="cls-2" d="M536,128.57v-1.94h8.05v1.94Zm2.06,2.3v-6.74h2.19v6.74Zm4.19,4.2a4.84,4.84,0,0,1-3.2-.86,3.47,3.47,0,0,1-1-2.75v-1.08h2.19v.87a1.75,1.75,0,0,0,.5,1.38,2.55,2.55,0,0,0,1.67.43c.25,0,.51,0,.8,0l1-.12.2,2c-.36.06-.71.11-1,.14S542.68,135.07,542.29,135.07Z"/><path class="cls-3" d="M70,90V85A10,10,0,0,1,80,75H280V60"/><path class="cls-3" d="M490,90V85a10,10,0,0,0-10-10H280V60"/><line class="cls-3" x1="70" y1="150" x2="70" y2="180"/><line class="cls-3" x1="70" y1="240" x2="70" y2="270"/><line class="cls-3" x1="70" y1="330" x2="70" y2="360"/><path class="cls-3" d="M660,180v-5a10,10,0,0,0-10-10H490V150"/><path class="cls-3" d="M490,150v15H330a10,10,0,0,0-10,10v5"/><line class="cls-3" x1="490" y1="150" x2="490" y2="180"/><line class="cls-3" x1="490" y1="240" x2="490" y2="270"/><line class="cls-3" x1="490" y1="330" x2="490" y2="360"/><line class="cls-3" x1="320" y1="240" x2="320" y2="270"/><line class="cls-3" x1="320" y1="330" x2="320" y2="360"/><line class="cls-3" x1="660" y1="240" x2="660" y2="270"/><line class="cls-3" x1="660" y1="330" x2="660" y2="360"/></svg>