<svg id="Layer_1" data-name="Layer 1" xmlns="http://www.w3.org/2000/svg" viewBox="0 0 5080 1080"><defs><style>.cls-1{fill:#c2ad95;}</style></defs><title>transition-light</title><path class="cls-1" d="M141.5,99a1.5,1.5,0,0,0-1.5,1.5v297a1.5,1.5,0,0,0,3,0v-297a1.5,1.5,0,0,0-1.5-1.5Z"/><path class="cls-1" d="M509.5,756.5A1.5,1.5,0,0,0,508,758v297a1.5,1.5,0,0,0,3,0V758a1.5,1.5,0,0,0-1.5-1.5Z"/><path class="cls-1" d="M777.5,98.5A1.5,1.5,0,0,0,776,100V397a1.5,1.5,0,0,0,3,0V100a1.5,1.5,0,0,0-1.5-1.5Z"/><path class="cls-1" d="M1489.5,606.5a1.5,1.5,0,0,0-1.5,1.5V905a1.5,1.5,0,0,0,3,0V608a1.5,1.5,0,0,0-1.5-1.5Z"/><path class="cls-1" d="M1254.5,277.5a1.5,1.5,0,0,0-1.5,1.5V576a1.5,1.5,0,0,0,3,0V279a1.5,1.5,0,0,0-1.5-1.5Z"/><path class="cls-1" d="M1626.5,108.5a1.5,1.5,0,0,0-1.5,1.5V407a1.5,1.5,0,0,0,3,0V110a1.5,1.5,0,0,0-1.5-1.5Z"/><path class="cls-1" d="M2028.5,573.5a1.5,1.5,0,0,0-1.5,1.5V872a1.5,1.5,0,0,0,3,0V575a1.5,1.5,0,0,0-1.5-1.5Z"/><path class="cls-1" d="M1910.5,108.5a1.5,1.5,0,0,0-1.5,1.5V407a1.5,1.5,0,0,0,3,0V110a1.5,1.5,0,0,0-1.5-1.5Z"/><path class="cls-1" d="M1071.5,17.5A1.5,1.5,0,0,0,1070,19V316a1.5,1.5,0,0,0,3,0V19a1.5,1.5,0,0,0-1.5-1.5Z"/><path class="cls-1" d="M930.5,767.5A1.5,1.5,0,0,0,929,769v297a1.5,1.5,0,0,0,3,0V769a1.5,1.5,0,0,0-1.5-1.5Z"/><path class="cls-1" d="M1133.5,606.5a1.5,1.5,0,0,0-1.5,1.5V905a1.5,1.5,0,0,0,3,0V608a1.5,1.5,0,0,0-1.5-1.5Z"/><path class="cls-1" d="M306.5,231.5A1.5,1.5,0,0,0,305,233V530a1.5,1.5,0,0,0,3,0V233a1.5,1.5,0,0,0-1.5-1.5Z"/><path class="cls-1" d="M2239.5,473.5a1.5,1.5,0,0,0-1.5,1.5V772a1.5,1.5,0,0,0,3,0V475a1.5,1.5,0,0,0-1.5-1.5Z"/><path class="cls-1" d="M2474.5,235.5a1.5,1.5,0,0,0-1.5,1.5V534a1.5,1.5,0,0,0,3,0V237a1.5,1.5,0,0,0-1.5-1.5Z"/><path class="cls-1" d="M2739.5,512.5a1.5,1.5,0,0,0-1.5,1.5V811a1.5,1.5,0,0,0,3,0V514a1.5,1.5,0,0,0-1.5-1.5Z"/><path class="cls-1" d="M2903.5,655.5a1.5,1.5,0,0,0-1.5,1.5V954a1.5,1.5,0,0,0,3,0V657a1.5,1.5,0,0,0-1.5-1.5Z"/><path class="cls-1" d="M3162.5,48.5A1.5,1.5,0,0,0,3161,50V347a1.5,1.5,0,0,0,3,0V50a1.5,1.5,0,0,0-1.5-1.5Z"/><path class="cls-1" d="M3270.5,288.5a1.5,1.5,0,0,0-1.5,1.5V587a1.5,1.5,0,0,0,3,0V290a1.5,1.5,0,0,0-1.5-1.5Z"/><path class="cls-1" d="M3543.5,62.5A1.5,1.5,0,0,0,3542,64V361a1.5,1.5,0,0,0,3,0V64a1.5,1.5,0,0,0-1.5-1.5Z"/><path class="cls-1" d="M3676.5,516.5a1.5,1.5,0,0,0-1.5,1.5V815a1.5,1.5,0,0,0,3,0V518a1.5,1.5,0,0,0-1.5-1.5Z"/><path class="cls-1" d="M3828.5,751.5a1.5,1.5,0,0,0-1.5,1.5v297a1.5,1.5,0,0,0,3,0V753a1.5,1.5,0,0,0-1.5-1.5Z"/><path class="cls-1" d="M3828.5,751.5a1.5,1.5,0,0,0-1.5,1.5v297a1.5,1.5,0,0,0,3,0V753a1.5,1.5,0,0,0-1.5-1.5Z"/><path class="cls-1" d="M4087.5,258.5a1.5,1.5,0,0,0-1.5,1.5V557a1.5,1.5,0,0,0,3,0V260a1.5,1.5,0,0,0-1.5-1.5Z"/><path class="cls-1" d="M4268.5,655.5a1.5,1.5,0,0,0-1.5,1.5V954a1.5,1.5,0,0,0,3,0V657a1.5,1.5,0,0,0-1.5-1.5Z"/><path class="cls-1" d="M4432.5,753.5a1.5,1.5,0,0,0-1.5,1.5v297a1.5,1.5,0,0,0,3,0V755a1.5,1.5,0,0,0-1.5-1.5Z"/><path class="cls-1" d="M4432.5,753.5a1.5,1.5,0,0,0-1.5,1.5v297a1.5,1.5,0,0,0,3,0V755a1.5,1.5,0,0,0-1.5-1.5Z"/><path class="cls-1" d="M4713.5,62.5A1.5,1.5,0,0,0,4712,64V361a1.5,1.5,0,0,0,3,0V64a1.5,1.5,0,0,0-1.5-1.5Z"/><path class="cls-1" d="M4626.5,235.5a1.5,1.5,0,0,0-1.5,1.5V534a1.5,1.5,0,0,0,3,0V237a1.5,1.5,0,0,0-1.5-1.5Z"/><path class="cls-1" d="M4953.5,473.5a1.5,1.5,0,0,0-1.5,1.5V772a1.5,1.5,0,0,0,3,0V475a1.5,1.5,0,0,0-1.5-1.5Z"/></svg>