<svg id="Layer_1" data-name="Layer 1" xmlns="http://www.w3.org/2000/svg" viewBox="0 0 171.93 173.97"><defs><style>.cls-1{fill:#c2ad95;}</style></defs><title>linkedin</title><path class="cls-1" d="M154.6,0H17.33A17.36,17.36,0,0,0,0,17.39V156.58A17.36,17.36,0,0,0,17.33,174H154.6a17.36,17.36,0,0,0,17.33-17.39V17.39A17.36,17.36,0,0,0,154.6,0ZM55.17,137.65H32V63.23H55.17ZM43.45,54.1c-7.3,0-12-5.17-12-11.56C31.43,36,36.3,31,43.75,31s12,5,12.18,11.57C55.93,48.93,51.21,54.1,43.45,54.1Zm96.18,83.55H116.5V96.41c0-9.59-3.35-16.13-11.72-16.13-6.4,0-10.2,4.41-11.87,8.67a16.65,16.65,0,0,0-.77,5.79v42.91H69V87c0-9.28-.3-17-.6-23.74H88.49l1.07,10.35H90c3-4.87,10.5-12,23-12,15.21,0,26.63,10.2,26.63,32.11Z" transform="translate(0 0)"/></svg>