<svg id="Layer_1" data-name="Layer 1" xmlns="http://www.w3.org/2000/svg" viewBox="0 0 5080 1080"><defs><style>.cls-1{fill:#110915;}</style></defs><title>transition</title><path class="cls-1" d="M143,98h-3a1.5,1.5,0,0,0-1.5,1.5v297A1.5,1.5,0,0,0,140,398h3a1.5,1.5,0,0,0,1.5-1.5V99.5A1.5,1.5,0,0,0,143,98Z"/><path class="cls-1" d="M323.5,481.5h-3A1.5,1.5,0,0,0,319,483V780a1.5,1.5,0,0,0,1.5,1.5h3A1.5,1.5,0,0,0,325,780V483a1.5,1.5,0,0,0-1.5-1.5Z"/><path class="cls-1" d="M503.5,182.5h-3A1.5,1.5,0,0,0,499,184V481a1.5,1.5,0,0,0,1.5,1.5h3A1.5,1.5,0,0,0,505,481V184a1.5,1.5,0,0,0-1.5-1.5Z"/><path class="cls-1" d="M683.5,719.5h-3A1.5,1.5,0,0,0,679,721v297a1.5,1.5,0,0,0,1.5,1.5h3a1.5,1.5,0,0,0,1.5-1.5V721a1.5,1.5,0,0,0-1.5-1.5Z"/><path class="cls-1" d="M863.5,593.5h-3A1.5,1.5,0,0,0,859,595V892a1.5,1.5,0,0,0,1.5,1.5h3A1.5,1.5,0,0,0,865,892V595a1.5,1.5,0,0,0-1.5-1.5Z"/><path class="cls-1" d="M1043.5,266.5h-3a1.5,1.5,0,0,0-1.5,1.5V565a1.5,1.5,0,0,0,1.5,1.5h3a1.5,1.5,0,0,0,1.5-1.5V268a1.5,1.5,0,0,0-1.5-1.5Z"/><path class="cls-1" d="M1223.5,131.5h-3a1.5,1.5,0,0,0-1.5,1.5V430a1.5,1.5,0,0,0,1.5,1.5h3a1.5,1.5,0,0,0,1.5-1.5V133a1.5,1.5,0,0,0-1.5-1.5Z"/><path class="cls-1" d="M1403.5,585.5h-3a1.5,1.5,0,0,0-1.5,1.5V884a1.5,1.5,0,0,0,1.5,1.5h3a1.5,1.5,0,0,0,1.5-1.5V587a1.5,1.5,0,0,0-1.5-1.5Z"/><path class="cls-1" d="M1583.5,332.5h-3a1.5,1.5,0,0,0-1.5,1.5V631a1.5,1.5,0,0,0,1.5,1.5h3a1.5,1.5,0,0,0,1.5-1.5V334a1.5,1.5,0,0,0-1.5-1.5Z"/><path class="cls-1" d="M1763.5,735.5h-3a1.5,1.5,0,0,0-1.5,1.5v297a1.5,1.5,0,0,0,1.5,1.5h3a1.5,1.5,0,0,0,1.5-1.5V737a1.5,1.5,0,0,0-1.5-1.5Z"/><path class="cls-1" d="M1943,98h-3a1.5,1.5,0,0,0-1.5,1.5v297a1.5,1.5,0,0,0,1.5,1.5h3a1.5,1.5,0,0,0,1.5-1.5V99.5A1.5,1.5,0,0,0,1943,98Z"/><path class="cls-1" d="M2123.5,663.5h-3a1.5,1.5,0,0,0-1.5,1.5V962a1.5,1.5,0,0,0,1.5,1.5h3a1.5,1.5,0,0,0,1.5-1.5V665a1.5,1.5,0,0,0-1.5-1.5Z"/><path class="cls-1" d="M2303.5,400.5h-3a1.5,1.5,0,0,0-1.5,1.5V699a1.5,1.5,0,0,0,1.5,1.5h3a1.5,1.5,0,0,0,1.5-1.5V402a1.5,1.5,0,0,0-1.5-1.5Z"/><path class="cls-1" d="M2483.5,54.5h-3A1.5,1.5,0,0,0,2479,56V353a1.5,1.5,0,0,0,1.5,1.5h3a1.5,1.5,0,0,0,1.5-1.5V56a1.5,1.5,0,0,0-1.5-1.5Z"/><path class="cls-1" d="M2663.5,569.5h-3a1.5,1.5,0,0,0-1.5,1.5V868a1.5,1.5,0,0,0,1.5,1.5h3a1.5,1.5,0,0,0,1.5-1.5V571a1.5,1.5,0,0,0-1.5-1.5Z"/><path class="cls-1" d="M2843,98h-3a1.5,1.5,0,0,0-1.5,1.5v297a1.5,1.5,0,0,0,1.5,1.5h3a1.5,1.5,0,0,0,1.5-1.5V99.5A1.5,1.5,0,0,0,2843,98Z"/><path class="cls-1" d="M3023.5,359.5h-3a1.5,1.5,0,0,0-1.5,1.5V658a1.5,1.5,0,0,0,1.5,1.5h3a1.5,1.5,0,0,0,1.5-1.5V361a1.5,1.5,0,0,0-1.5-1.5Z"/><path class="cls-1" d="M3203.5,738.5h-3a1.5,1.5,0,0,0-1.5,1.5v297a1.5,1.5,0,0,0,1.5,1.5h3a1.5,1.5,0,0,0,1.5-1.5V740a1.5,1.5,0,0,0-1.5-1.5Z"/><path class="cls-1" d="M3383.5,183.5h-3a1.5,1.5,0,0,0-1.5,1.5V482a1.5,1.5,0,0,0,1.5,1.5h3a1.5,1.5,0,0,0,1.5-1.5V185a1.5,1.5,0,0,0-1.5-1.5Z"/><path class="cls-1" d="M3563.5,333.5h-3a1.5,1.5,0,0,0-1.5,1.5V632a1.5,1.5,0,0,0,1.5,1.5h3a1.5,1.5,0,0,0,1.5-1.5V335a1.5,1.5,0,0,0-1.5-1.5Z"/><path class="cls-1" d="M3743.5,116.5h-3a1.5,1.5,0,0,0-1.5,1.5V415a1.5,1.5,0,0,0,1.5,1.5h3a1.5,1.5,0,0,0,1.5-1.5V118a1.5,1.5,0,0,0-1.5-1.5Z"/><path class="cls-1" d="M3923.5,623.5h-3a1.5,1.5,0,0,0-1.5,1.5V922a1.5,1.5,0,0,0,1.5,1.5h3a1.5,1.5,0,0,0,1.5-1.5V625a1.5,1.5,0,0,0-1.5-1.5Z"/><path class="cls-1" d="M4103.5,474.5h-3a1.5,1.5,0,0,0-1.5,1.5V773a1.5,1.5,0,0,0,1.5,1.5h3a1.5,1.5,0,0,0,1.5-1.5V476a1.5,1.5,0,0,0-1.5-1.5Z"/><path class="cls-1" d="M4283,98h-3a1.5,1.5,0,0,0-1.5,1.5v297a1.5,1.5,0,0,0,1.5,1.5h3a1.5,1.5,0,0,0,1.5-1.5V99.5A1.5,1.5,0,0,0,4283,98Z"/><path class="cls-1" d="M4463.5,168.5h-3a1.5,1.5,0,0,0-1.5,1.5V467a1.5,1.5,0,0,0,1.5,1.5h3a1.5,1.5,0,0,0,1.5-1.5V170a1.5,1.5,0,0,0-1.5-1.5Z"/><path class="cls-1" d="M4643.5,655.5h-3a1.5,1.5,0,0,0-1.5,1.5V954a1.5,1.5,0,0,0,1.5,1.5h3a1.5,1.5,0,0,0,1.5-1.5V657a1.5,1.5,0,0,0-1.5-1.5Z"/><path class="cls-1" d="M4820.5,109.5h-3a1.5,1.5,0,0,0-1.5,1.5V408a1.5,1.5,0,0,0,1.5,1.5h3a1.5,1.5,0,0,0,1.5-1.5V111a1.5,1.5,0,0,0-1.5-1.5Z"/><path class="cls-1" d="M5003.5,382.5h-3a1.5,1.5,0,0,0-1.5,1.5V681a1.5,1.5,0,0,0,1.5,1.5h3a1.5,1.5,0,0,0,1.5-1.5V384a1.5,1.5,0,0,0-1.5-1.5Z"/></svg>